<?xml version="1.0" encoding="UTF-8" standalone="no"?>
<svg xmlns="http://www.w3.org/2000/svg" width="1000" height="600" viewBox="0 0 1000 600">
  <!-- Split Background - Retro theme -->
  <rect x="0" y="0" width="500" height="600" fill="#2c2837"/> <!-- Dark purple-brown -->
  <rect x="500" y="0" width="500" height="600" fill="#f2f1e4"/> <!-- Eggshell white -->
  
  <!-- Title -->
  <text x="250" y="40" font-family="sans-serif" font-size="20" font-weight="bold" text-anchor="middle" fill="#f2f1e4">Retro Dark</text>
  <text x="750" y="40" font-family="sans-serif" font-size="20" font-weight="bold" text-anchor="middle" fill="#2c2837">Retro Light</text>
  
  <!-- Dark Theme Content -->
  <text x="60" y="80" font-family="monospace" font-size="14" fill="#a39e9b"># Retro monochromatic scale (dark to light)</text>
  
  <rect x="60" y="100" width="20" height="20" rx="2" fill="#2c2837" stroke="#544d56" stroke-width="1"/>
  <text x="90" y="115" font-family="monospace" font-size="14" fill="#a39e9b">base00 = "#2c2837" # Vintage purple</text>
  
  <rect x="60" y="130" width="20" height="20" rx="2" fill="#3e3847"/>
  <text x="90" y="145" font-family="monospace" font-size="14" fill="#a39e9b">base01 = "#3e3847" # Eggplant</text>
  
  <rect x="60" y="160" width="20" height="20" rx="2" fill="#544d56"/>
  <text x="90" y="175" font-family="monospace" font-size="14" fill="#a39e9b">base02 = "#544d56" # Dusty plum</text>
  
  <rect x="60" y="190" width="20" height="20" rx="2" fill="#6e6a73"/>
  <text x="90" y="205" font-family="monospace" font-size="14" fill="#a39e9b">base03 = "#6e6a73" # Faded denim</text>
  
  <rect x="60" y="220" width="20" height="20" rx="2" fill="#868282"/>
  <text x="90" y="235" font-family="monospace" font-size="14" fill="#a39e9b">base04 = "#868282" # Weathered gray</text>
  
  <rect x="60" y="250" width="20" height="20" rx="2" fill="#a39e9b"/>
  <text x="90" y="265" font-family="monospace" font-size="14" fill="#a39e9b">base05 = "#a39e9b" # Stone wash</text>
  
  <rect x="60" y="280" width="20" height="20" rx="2" fill="#d0c9c5"/>
  <text x="90" y="295" font-family="monospace" font-size="14" fill="#d0c9c5">base06 = "#d0c9c5" # Antique lace</text>
  
  <rect x="60" y="310" width="20" height="20" rx="2" fill="#f2f1e4"/>
  <text x="90" y="325" font-family="monospace" font-size="14" fill="#f2f1e4">base07 = "#f2f1e4" # Eggshell</text>
  
  <text x="60" y="360" font-family="monospace" font-size="14" fill="#a39e9b"># Functional colors</text>
  
  <rect x="60" y="380" width="20" height="20" rx="2" fill="#dc7a7a"/>
  <text x="90" y="395" font-family="monospace" font-size="14" fill="#dc7a7a">base08 = "#dc7a7a" # Error - Rose</text>
  
  <rect x="60" y="410" width="20" height="20" rx="2" fill="#d99f57"/>
  <text x="90" y="425" font-family="monospace" font-size="14" fill="#d99f57">base09 = "#d99f57" # Warning - Caramel</text>
  
  <rect x="60" y="440" width="20" height="20" rx="2" fill="#ccc566"/>
  <text x="90" y="455" font-family="monospace" font-size="14" fill="#ccc566">base0A = "#ccc566" # Notice - Dijon</text>
  
  <rect x="60" y="470" width="20" height="20" rx="2" fill="#92ba89"/>
  <text x="90" y="485" font-family="monospace" font-size="14" fill="#92ba89">base0B = "#92ba89" # Success - Sage</text>
  
  <rect x="60" y="500" width="20" height="20" rx="2" fill="#80b7bc"/>
  <text x="90" y="515" font-family="monospace" font-size="14" fill="#80b7bc">base0C = "#80b7bc" # Selection - Seafoam</text>
  
  <rect x="60" y="530" width="20" height="20" rx="2" fill="#7c94b8"/>
  <text x="90" y="545" font-family="monospace" font-size="14" fill="#7c94b8">base0D = "#7c94b8" # Information - Cornflower</text>
  
  <rect x="60" y="560" width="20" height="20" rx="2" fill="#a288b5"/>
  <text x="90" y="575" font-family="monospace" font-size="14" fill="#a288b5">base0E = "#a288b5" # Focus - Lavender</text>
  
  <!-- Light Theme Content -->
  <text x="560" y="80" font-family="monospace" font-size="14" fill="#6e6a73"># Retro monochromatic scale (light to dark)</text>
  
  <rect x="560" y="100" width="20" height="20" rx="2" fill="#f2f1e4" stroke="#d0c9c5" stroke-width="1"/>
  <text x="590" y="115" font-family="monospace" font-size="14" fill="#6e6a73">base00 = "#f2f1e4" # Eggshell</text>
  
  <rect x="560" y="130" width="20" height="20" rx="2" fill="#e9e6d6"/>
  <text x="590" y="145" font-family="monospace" font-size="14" fill="#6e6a73">base01 = "#e9e6d6" # Parchment</text>
  
  <rect x="560" y="160" width="20" height="20" rx="2" fill="#d0c9c5"/>
  <text x="590" y="175" font-family="monospace" font-size="14" fill="#6e6a73">base02 = "#d0c9c5" # Antique lace</text>
  
  <rect x="560" y="190" width="20" height="20" rx="2" fill="#a39e9b"/>
  <text x="590" y="205" font-family="monospace" font-size="14" fill="#6e6a73">base03 = "#a39e9b" # Stone wash</text>
  
  <rect x="560" y="220" width="20" height="20" rx="2" fill="#868282"/>
  <text x="590" y="235" font-family="monospace" font-size="14" fill="#6e6a73">base04 = "#868282" # Weathered gray</text>
  
  <rect x="560" y="250" width="20" height="20" rx="2" fill="#6e6a73"/>
  <text x="590" y="265" font-family="monospace" font-size="14" fill="#6e6a73">base05 = "#6e6a73" # Faded denim</text>
  
  <rect x="560" y="280" width="20" height="20" rx="2" fill="#544d56"/>
  <text x="590" y="295" font-family="monospace" font-size="14" fill="#544d56">base06 = "#544d56" # Dusty plum</text>
  
  <rect x="560" y="310" width="20" height="20" rx="2" fill="#2c2837"/>
  <text x="590" y="325" font-family="monospace" font-size="14" fill="#2c2837">base07 = "#2c2837" # Vintage purple</text>
  
  <text x="560" y="360" font-family="monospace" font-size="14" fill="#6e6a73"># Functional colors</text>
  
  <rect x="560" y="380" width="20" height="20" rx="2" fill="#b75a5a"/>
  <text x="590" y="395" font-family="monospace" font-size="14" fill="#b75a5a">base08 = "#b75a5a" # Error - Muted rose</text>

  <rect x="560" y="410" width="20" height="20" rx="2" fill="#b7803f"/>
  <text x="590" y="425" font-family="monospace" font-size="14" fill="#b7803f">base09 = "#b7803f" # Warning - Amber</text>

  <rect x="560" y="440" width="20" height="20" rx="2" fill="#a8a04a"/>
  <text x="590" y="455" font-family="monospace" font-size="14" fill="#a8a04a">base0A = "#a8a04a" # Notice - Olive gold</text>

  <rect x="560" y="470" width="20" height="20" rx="2" fill="#709a68"/>
  <text x="590" y="485" font-family="monospace" font-size="14" fill="#709a68">base0B = "#709a68" # Success - Vintage sage</text>

  <rect x="560" y="500" width="20" height="20" rx="2" fill="#5f969a"/>
  <text x="590" y="515" font-family="monospace" font-size="14" fill="#5f969a">base0C = "#5f969a" # Selection - Teal</text>

  <rect x="560" y="530" width="20" height="20" rx="2" fill="#5d7595"/>
  <text x="590" y="545" font-family="monospace" font-size="14" fill="#5d7595">base0D = "#5d7595" # Information - Slate blue</text>

  <rect x="560" y="560" width="20" height="20" rx="2" fill="#8470a0"/>
  <text x="590" y="575" font-family="monospace" font-size="14" fill="#8470a0">base0E = "#8470a0" # Focus - Muted lavender</text>
</svg>
