<?xml version="1.0" encoding="UTF-8" standalone="no"?>
<svg xmlns="http://www.w3.org/2000/svg" width="1000" height="600" viewBox="0 0 1000 600">
  <!-- Split Background -->
  <rect x="0" y="0" width="500" height="600" fill="#0a1e36"/>
  <rect x="500" y="0" width="500" height="600" fill="#c4dcf2"/>
  
  <!-- Title -->
  <text x="250" y="40" font-family="sans-serif" font-size="20" font-weight="bold" text-anchor="middle" fill="#deeef8">Blue Dark</text>
  <text x="750" y="40" font-family="sans-serif" font-size="20" font-weight="bold" text-anchor="middle" fill="#0a1e36">Blue Light</text>
  
  <!-- Dark Theme Content -->
  <text x="60" y="80" font-family="monospace" font-size="14" fill="#7ba9d0"># Blue monochromatic scale (dark to light)</text>
  
  <rect x="60" y="100" width="20" height="20" rx="2" fill="#0a1e36" stroke="#335a7c" stroke-width="1"/>
  <text x="90" y="115" font-family="monospace" font-size="14" fill="#7ba9d0">base00 = "#0a1e36" # Darkest blue</text>
  
  <rect x="60" y="130" width="20" height="20" rx="2" fill="#112a46"/>
  <text x="90" y="145" font-family="monospace" font-size="14" fill="#7ba9d0">base01 = "#112a46" # Very dark blue</text>
  
  <rect x="60" y="160" width="20" height="20" rx="2" fill="#1e3a64"/>
  <text x="90" y="175" font-family="monospace" font-size="14" fill="#7ba9d0">base02 = "#1e3a64" # Dark blue</text>
  
  <rect x="60" y="190" width="20" height="20" rx="2" fill="#335a7c"/>
  <text x="90" y="205" font-family="monospace" font-size="14" fill="#7ba9d0">base03 = "#335a7c" # Medium-dark blue</text>
  
  <rect x="60" y="220" width="20" height="20" rx="2" fill="#5382a8"/>
  <text x="90" y="235" font-family="monospace" font-size="14" fill="#7ba9d0">base04 = "#5382a8" # Medium blue</text>
  
  <rect x="60" y="250" width="20" height="20" rx="2" fill="#7ba9d0"/>
  <text x="90" y="265" font-family="monospace" font-size="14" fill="#7ba9d0">base05 = "#7ba9d0" # Medium-light blue</text>
  
  <rect x="60" y="280" width="20" height="20" rx="2" fill="#a8cde9"/>
  <text x="90" y="295" font-family="monospace" font-size="14" fill="#a8cde9">base06 = "#a8cde9" # Light blue</text>
  
  <rect x="60" y="310" width="20" height="20" rx="2" fill="#deeef8"/>
  <text x="90" y="325" font-family="monospace" font-size="14" fill="#deeef8">base07 = "#deeef8" # Very light blue</text>
  
  <text x="60" y="360" font-family="monospace" font-size="14" fill="#7ba9d0"># Functional colors</text>
  
  <rect x="60" y="380" width="20" height="20" rx="2" fill="#e55a5a"/>
  <text x="90" y="395" font-family="monospace" font-size="14" fill="#e55a5a">base08 = "#e55a5a" # Error - red</text>
  
  <rect x="60" y="410" width="20" height="20" rx="2" fill="#e5995a"/>
  <text x="90" y="425" font-family="monospace" font-size="14" fill="#e5995a">base09 = "#e5995a" # Warning - orange</text>
  
  <rect x="60" y="440" width="20" height="20" rx="2" fill="#e5d15a"/>
  <text x="90" y="455" font-family="monospace" font-size="14" fill="#e5d15a">base0A = "#e5d15a" # Notice - yellow</text>
  
  <rect x="60" y="470" width="20" height="20" rx="2" fill="#5ae55a"/>
  <text x="90" y="485" font-family="monospace" font-size="14" fill="#5ae55a">base0B = "#5ae55a" # Success - green</text>
  
  <rect x="60" y="500" width="20" height="20" rx="2" fill="#5ae5e5"/>
  <text x="90" y="515" font-family="monospace" font-size="14" fill="#5ae5e5">base0C = "#5ae5e5" # Selection - cyan</text>
  
  <rect x="60" y="530" width="20" height="20" rx="2" fill="#5a9de5"/>
  <text x="90" y="545" font-family="monospace" font-size="14" fill="#5a9de5">base0D = "#5a9de5" # Information - blue</text>
  
  <rect x="60" y="560" width="20" height="20" rx="2" fill="#a85ae5"/>
  <text x="90" y="575" font-family="monospace" font-size="14" fill="#a85ae5">base0E = "#a85ae5" # Focus - purple</text>
  
  <!-- Light Theme Content -->
  <text x="560" y="80" font-family="monospace" font-size="14" fill="#335a7c"># Blue monochromatic scale (light to dark)</text>
  
  <rect x="560" y="100" width="20" height="20" rx="2" fill="#c4dcf2" stroke="#a8cde9" stroke-width="1"/>
  <text x="590" y="115" font-family="monospace" font-size="14" fill="#335a7c">base00 = "#c4dcf2" # Light blue</text>
  
  <rect x="560" y="130" width="20" height="20" rx="2" fill="#a7cbed"/>
  <text x="590" y="145" font-family="monospace" font-size="14" fill="#335a7c">base01 = "#a7cbed" # Medium-light blue</text>
  
  <rect x="560" y="160" width="20" height="20" rx="2" fill="#8bb8e2"/>
  <text x="590" y="175" font-family="monospace" font-size="14" fill="#335a7c">base02 = "#8bb8e2" # Medium blue</text>
  
  <rect x="560" y="190" width="20" height="20" rx="2" fill="#7ba9d0"/>
  <text x="590" y="205" font-family="monospace" font-size="14" fill="#335a7c">base03 = "#7ba9d0" # Medium blue</text>
  
  <rect x="560" y="220" width="20" height="20" rx="2" fill="#5382a8"/>
  <text x="590" y="235" font-family="monospace" font-size="14" fill="#335a7c">base04 = "#5382a8" # Medium-dark blue</text>
  
  <rect x="560" y="250" width="20" height="20" rx="2" fill="#335a7c"/>
  <text x="590" y="265" font-family="monospace" font-size="14" fill="#335a7c">base05 = "#335a7c" # Dark blue</text>
  
  <rect x="560" y="280" width="20" height="20" rx="2" fill="#1e3a64"/>
  <text x="590" y="295" font-family="monospace" font-size="14" fill="#1e3a64">base06 = "#1e3a64" # Very dark blue</text>
  
  <rect x="560" y="310" width="20" height="20" rx="2" fill="#0a1e36"/>
  <text x="590" y="325" font-family="monospace" font-size="14" fill="#0a1e36">base07 = "#0a1e36" # Darkest blue</text>
  
  <text x="560" y="360" font-family="monospace" font-size="14" fill="#335a7c"># Functional colors</text>
  
  <rect x="560" y="380" width="20" height="20" rx="2" fill="#d12f2f"/>
  <text x="590" y="395" font-family="monospace" font-size="14" fill="#d12f2f">base08 = "#d12f2f" # Error - red</text>
  
  <rect x="560" y="410" width="20" height="20" rx="2" fill="#cb7832"/>
  <text x="590" y="425" font-family="monospace" font-size="14" fill="#cb7832">base09 = "#cb7832" # Warning - orange</text>
  
  <rect x="560" y="440" width="20" height="20" rx="2" fill="#925a10"/>
  <text x="590" y="455" font-family="monospace" font-size="14" fill="#925a10">base0A = "#925a10" # Notice - amber</text>
  
  <rect x="560" y="470" width="20" height="20" rx="2" fill="#2a8c2a"/>
  <text x="590" y="485" font-family="monospace" font-size="14" fill="#2a8c2a">base0B = "#2a8c2a" # Success - green</text>
  
  <rect x="560" y="500" width="20" height="20" rx="2" fill="#2a8c8c"/>
  <text x="590" y="515" font-family="monospace" font-size="14" fill="#2a8c8c">base0C = "#2a8c8c" # Selection - cyan</text>
  
  <rect x="560" y="530" width="20" height="20" rx="2" fill="#2970b6"/>
  <text x="590" y="545" font-family="monospace" font-size="14" fill="#2970b6">base0D = "#2970b6" # Information - blue</text>
  
  <rect x="560" y="560" width="20" height="20" rx="2" fill="#7436b6"/>
  <text x="590" y="575" font-family="monospace" font-size="14" fill="#7436b6">base0E = "#7436b6" # Focus - purple</text>
</svg>
