<?xml version="1.0" encoding="UTF-8" standalone="no"?>
<svg xmlns="http://www.w3.org/2000/svg" width="1000" height="600" viewBox="0 0 1000 600">
  <!-- Split Background -->
  <rect x="0" y="0" width="500" height="600" fill="#0e2714"/>
  <rect x="500" y="0" width="500" height="600" fill="#c9e8ce"/>
  
  <!-- Title -->
  <text x="250" y="40" font-family="sans-serif" font-size="20" font-weight="bold" text-anchor="middle" fill="#e3f1e4">Green Dark</text>
  <text x="750" y="40" font-family="sans-serif" font-size="20" font-weight="bold" text-anchor="middle" fill="#0e2714">Green Light</text>
  
  <!-- Dark Theme Content -->
  <text x="60" y="80" font-family="monospace" font-size="14" fill="#81b38c"># Green monochromatic scale (dark to light)</text>
  
  <rect x="60" y="100" width="20" height="20" rx="2" fill="#0e2714" stroke="#2d5c35" stroke-width="1"/>
  <text x="90" y="115" font-family="monospace" font-size="14" fill="#81b38c">base00 = "#0e2714" # Darkest green</text>
  
  <rect x="60" y="130" width="20" height="20" rx="2" fill="#193821"/>
  <text x="90" y="145" font-family="monospace" font-size="14" fill="#81b38c">base01 = "#193821" # Very dark green</text>
  
  <rect x="60" y="160" width="20" height="20" rx="2" fill="#224c2c"/>
  <text x="90" y="175" font-family="monospace" font-size="14" fill="#81b38c">base02 = "#224c2c" # Dark green</text>
  
  <rect x="60" y="190" width="20" height="20" rx="2" fill="#2d5c35"/>
  <text x="90" y="205" font-family="monospace" font-size="14" fill="#81b38c">base03 = "#2d5c35" # Medium-dark green</text>
  
  <rect x="60" y="220" width="20" height="20" rx="2" fill="#4b835a"/>
  <text x="90" y="235" font-family="monospace" font-size="14" fill="#81b38c">base04 = "#4b835a" # Medium green</text>
  
  <rect x="60" y="250" width="20" height="20" rx="2" fill="#81b38c"/>
  <text x="90" y="265" font-family="monospace" font-size="14" fill="#81b38c">base05 = "#81b38c" # Medium-light green</text>
  
  <rect x="60" y="280" width="20" height="20" rx="2" fill="#b9d7be"/>
  <text x="90" y="295" font-family="monospace" font-size="14" fill="#b9d7be">base06 = "#b9d7be" # Light green</text>
  
  <rect x="60" y="310" width="20" height="20" rx="2" fill="#e3f1e4"/>
  <text x="90" y="325" font-family="monospace" font-size="14" fill="#e3f1e4">base07 = "#e3f1e4" # Very light green</text>
  
  <text x="60" y="360" font-family="monospace" font-size="14" fill="#81b38c"># Functional colors</text>
  
  <rect x="60" y="380" width="20" height="20" rx="2" fill="#fd8489"/>
  <text x="90" y="395" font-family="monospace" font-size="14" fill="#fd8489">base08 = "#fd8489" # Error - salmon</text>
  
  <rect x="60" y="410" width="20" height="20" rx="2" fill="#ffaa7b"/>
  <text x="90" y="425" font-family="monospace" font-size="14" fill="#ffaa7b">base09 = "#ffaa7b" # Warning - peach</text>
  
  <rect x="60" y="440" width="20" height="20" rx="2" fill="#fcd384"/>
  <text x="90" y="455" font-family="monospace" font-size="14" fill="#fcd384">base0A = "#fcd384" # Notice - light orange</text>
  
  <rect x="60" y="470" width="20" height="20" rx="2" fill="#a6e44d"/>
  <text x="90" y="485" font-family="monospace" font-size="14" fill="#a6e44d">base0B = "#a6e44d" # Success - lime</text>
  
  <rect x="60" y="500" width="20" height="20" rx="2" fill="#83dfdf"/>
  <text x="90" y="515" font-family="monospace" font-size="14" fill="#83dfdf">base0C = "#83dfdf" # Selection - turquoise</text>
  
  <rect x="60" y="530" width="20" height="20" rx="2" fill="#73afe5"/>
  <text x="90" y="545" font-family="monospace" font-size="14" fill="#73afe5">base0D = "#73afe5" # Information - sky blue</text>
  
  <rect x="60" y="560" width="20" height="20" rx="2" fill="#df99f0"/>
  <text x="90" y="575" font-family="monospace" font-size="14" fill="#df99f0">base0E = "#df99f0" # Focus - orchid</text>
  
  <!-- Light Theme Content -->
  <text x="560" y="80" font-family="monospace" font-size="14" fill="#2d5c35"># Green monochromatic scale (light to dark)</text>
  
  <rect x="560" y="100" width="20" height="20" rx="2" fill="#c9e8ce" stroke="#b9d7be" stroke-width="1"/>
  <text x="590" y="115" font-family="monospace" font-size="14" fill="#2d5c35">base00 = "#c9e8ce" # Very light green</text>
  
  <rect x="560" y="130" width="20" height="20" rx="2" fill="#b9d7be"/>
  <text x="590" y="145" font-family="monospace" font-size="14" fill="#2d5c35">base01 = "#b9d7be" # Light green</text>
  
  <rect x="560" y="160" width="20" height="20" rx="2" fill="#a8cea9"/>
  <text x="590" y="175" font-family="monospace" font-size="14" fill="#2d5c35">base02 = "#a8cea9" # Medium-light green</text>
  
  <rect x="560" y="190" width="20" height="20" rx="2" fill="#91b992"/>
  <text x="590" y="205" font-family="monospace" font-size="14" fill="#2d5c35">base03 = "#91b992" # Medium green</text>
  
  <rect x="560" y="220" width="20" height="20" rx="2" fill="#67996f"/>
  <text x="590" y="235" font-family="monospace" font-size="14" fill="#2d5c35">base04 = "#67996f" # Medium-dark green</text>
  
  <rect x="560" y="250" width="20" height="20" rx="2" fill="#4b835a"/>
  <text x="590" y="265" font-family="monospace" font-size="14" fill="#2d5c35">base05 = "#4b835a" # Dark green</text>
  
  <rect x="560" y="280" width="20" height="20" rx="2" fill="#2d5c35"/>
  <text x="590" y="295" font-family="monospace" font-size="14" fill="#2d5c35">base06 = "#2d5c35" # Very dark green</text>
  
  <rect x="560" y="310" width="20" height="20" rx="2" fill="#193821"/>
  <text x="590" y="325" font-family="monospace" font-size="14" fill="#193821">base07 = "#193821" # Darkest green</text>
  
  <text x="560" y="360" font-family="monospace" font-size="14" fill="#2d5c35"># Functional colors</text>
  
  <rect x="560" y="380" width="20" height="20" rx="2" fill="#d44246"/>
  <text x="590" y="395" font-family="monospace" font-size="14" fill="#d44246">base08 = "#d44246" # Error - burgundy</text>
  
  <rect x="560" y="410" width="20" height="20" rx="2" fill="#e07336"/>
  <text x="590" y="425" font-family="monospace" font-size="14" fill="#e07336">base09 = "#e07336" # Warning - rust</text>
  
  <rect x="560" y="440" width="20" height="20" rx="2" fill="#e2b53a"/>
  <text x="590" y="455" font-family="monospace" font-size="14" fill="#e2b53a">base0A = "#e2b53a" # Notice - bronze</text>
  
  <rect x="560" y="470" width="20" height="20" rx="2" fill="#5db32b"/>
  <text x="590" y="485" font-family="monospace" font-size="14" fill="#5db32b">base0B = "#5db32b" # Success - forest</text>
  
  <rect x="560" y="500" width="20" height="20" rx="2" fill="#3bb5c3"/>
  <text x="590" y="515" font-family="monospace" font-size="14" fill="#3bb5c3">base0C = "#3bb5c3" # Selection - teal</text>
  
  <rect x="560" y="530" width="20" height="20" rx="2" fill="#4284d3"/>
  <text x="590" y="545" font-family="monospace" font-size="14" fill="#4284d3">base0D = "#4284d3" # Information - azure</text>
  
  <rect x="560" y="560" width="20" height="20" rx="2" fill="#a94dd0"/>
  <text x="590" y="575" font-family="monospace" font-size="14" fill="#a94dd0">base0E = "#a94dd0" # Focus - violet</text>
</svg>
