<?xml version="1.0" encoding="UTF-8" standalone="no"?>
<svg xmlns="http://www.w3.org/2000/svg" width="1000" height="600" viewBox="0 0 1000 600">
  <!-- Split Background - Ghost ethereal theme -->
  <rect x="0" y="0" width="500" height="600" fill="#1a1a2e"/> <!-- Deep ghost blue -->
  <rect x="500" y="0" width="500" height="600" fill="#e6f7ff"/> <!-- Ethereal light blue -->
  
  <!-- Title -->
  <text x="250" y="40" font-family="sans-serif" font-size="20" font-weight="bold" text-anchor="middle" fill="#b8c6db">Ghost Dark</text>
  <text x="750" y="40" font-family="sans-serif" font-size="20" font-weight="bold" text-anchor="middle" fill="#1a1a2e">Ghost Light</text>
  
  <!-- Dark Theme Content -->
  <text x="60" y="80" font-family="monospace" font-size="14" fill="#b8c6db"># Ghost monochromatic scale (dark to light)</text>
  
  <rect x="60" y="100" width="20" height="20" rx="2" fill="#1a1a2e" stroke="#303a5a" stroke-width="1"/>
  <text x="90" y="115" font-family="monospace" font-size="14" fill="#b8c6db">base00 = "#1a1a2e" # Phantom</text>
  
  <rect x="60" y="130" width="20" height="20" rx="2" fill="#232347"/>
  <text x="90" y="145" font-family="monospace" font-size="14" fill="#b8c6db">base01 = "#232347" # Specter</text>
  
  <rect x="60" y="160" width="20" height="20" rx="2" fill="#303a5a"/>
  <text x="90" y="175" font-family="monospace" font-size="14" fill="#b8c6db">base02 = "#303a5a" # Wraith</text>
  
  <rect x="60" y="190" width="20" height="20" rx="2" fill="#4a5580"/>
  <text x="90" y="205" font-family="monospace" font-size="14" fill="#b8c6db">base03 = "#4a5580" # Spirit</text>
  
  <rect x="60" y="220" width="20" height="20" rx="2" fill="#7b88b5"/>
  <text x="90" y="235" font-family="monospace" font-size="14" fill="#b8c6db">base04 = "#7b88b5" # Apparition</text>
  
  <rect x="60" y="250" width="20" height="20" rx="2" fill="#b8c6db"/>
  <text x="90" y="265" font-family="monospace" font-size="14" fill="#b8c6db">base05 = "#b8c6db" # Ethereal</text>
  
  <rect x="60" y="280" width="20" height="20" rx="2" fill="#d5e3ff"/>
  <text x="90" y="295" font-family="monospace" font-size="14" fill="#d5e3ff">base06 = "#d5e3ff" # Spectral</text>
  
  <rect x="60" y="310" width="20" height="20" rx="2" fill="#eef5ff"/>
  <text x="90" y="325" font-family="monospace" font-size="14" fill="#eef5ff">base07 = "#eef5ff" # Aether</text>
  
  <text x="60" y="360" font-family="monospace" font-size="14" fill="#b8c6db"># Functional colors</text>
  
  <rect x="60" y="380" width="20" height="20" rx="2" fill="#9370db"/>
  <text x="90" y="395" font-family="monospace" font-size="14" fill="#9370db">base08 = "#9370db" # Error</text>
  
  <rect x="60" y="410" width="20" height="20" rx="2" fill="#a389d6"/>
  <text x="90" y="425" font-family="monospace" font-size="14" fill="#a389d6">base09 = "#a389d6" # Warning</text>
  
  <rect x="60" y="440" width="20" height="20" rx="2" fill="#b8a2e0"/>
  <text x="90" y="455" font-family="monospace" font-size="14" fill="#b8a2e0">base0A = "#b8a2e0" # Notice</text>
  
  <rect x="60" y="470" width="20" height="20" rx="2" fill="#6495ed"/>
  <text x="90" y="485" font-family="monospace" font-size="14" fill="#6495ed">base0B = "#6495ed" # Success</text>
  
  <rect x="60" y="500" width="20" height="20" rx="2" fill="#87cefa"/>
  <text x="90" y="515" font-family="monospace" font-size="14" fill="#87cefa">base0C = "#87cefa" # Selection</text>
  
  <rect x="60" y="530" width="20" height="20" rx="2" fill="#7b68ee"/>
  <text x="90" y="545" font-family="monospace" font-size="14" fill="#7b68ee">base0D = "#7b68ee" # Information</text>
  
  <rect x="60" y="560" width="20" height="20" rx="2" fill="#9370db"/>
  <text x="90" y="575" font-family="monospace" font-size="14" fill="#9370db">base0E = "#9370db" # Focus</text>
  
  <!-- Light Theme Content -->
  <text x="560" y="80" font-family="monospace" font-size="14" fill="#54433a"># Aikido monochromatic scale (light to dark)</text>
  
  <rect x="560" y="100" width="20" height="20" rx="2" fill="#f6f5f0" stroke="#cbc3bc" stroke-width="1"/>
  <text x="590" y="115" font-family="monospace" font-size="14" fill="#54433a">base00 = "#f6f5f0" # Washi (paper)</text>
  
  <rect x="560" y="130" width="20" height="20" rx="2" fill="#e9e4d4"/>
  <text x="590" y="145" font-family="monospace" font-size="14" fill="#54433a">base01 = "#e9e4d4" # Gofun (white chalk)</text>
  
  <rect x="560" y="160" width="20" height="20" rx="2" fill="#cbc3bc"/>
  <text x="590" y="175" font-family="monospace" font-size="14" fill="#54433a">base02 = "#cbc3bc" # Kinunezu (silk)</text>
  
  <rect x="560" y="190" width="20" height="20" rx="2" fill="#a29990"/>
  <text x="590" y="205" font-family="monospace" font-size="14" fill="#54433a">base03 = "#a29990" # Nezumi (mouse gray)</text>
  
  <rect x="560" y="220" width="20" height="20" rx="2" fill="#6c5d53"/>
  <text x="590" y="235" font-family="monospace" font-size="14" fill="#54433a">base04 = "#6c5d53" # Dobai (clay)</text>
  
  <rect x="560" y="250" width="20" height="20" rx="2" fill="#54433a"/>
  <text x="590" y="265" font-family="monospace" font-size="14" fill="#54433a">base05 = "#54433a" # Chai (brown)</text>
  
  <rect x="560" y="280" width="20" height="20" rx="2" fill="#3b3028"/>
  <text x="590" y="295" font-family="monospace" font-size="14" fill="#3b3028">base06 = "#3b3028" # Kogecha (dark brown)</text>
  
  <rect x="560" y="310" width="20" height="20" rx="2" fill="#262626"/>
  <text x="590" y="325" font-family="monospace" font-size="14" fill="#262626">base07 = "#262626" # Sumi (charcoal)</text>
  
  <text x="560" y="360" font-family="monospace" font-size="14" fill="#54433a"># Functional colors</text>
  
  <rect x="560" y="380" width="20" height="20" rx="2" fill="#2a3328"/>
  <text x="590" y="395" font-family="monospace" font-size="14" fill="#2a3328">base08 = "#2a3328" # Error</text>
  
  <rect x="560" y="410" width="20" height="20" rx="2" fill="#604c3f"/>
  <text x="590" y="425" font-family="monospace" font-size="14" fill="#604c3f">base09 = "#604c3f" # Warning</text>
  
  <rect x="560" y="440" width="20" height="20" rx="2" fill="#8a6642"/>
  <text x="590" y="455" font-family="monospace" font-size="14" fill="#8a6642">base0A = "#8a6642" # Notice</text>
  
  <rect x="560" y="470" width="20" height="20" rx="2" fill="#c73b2d"/>
  <text x="590" y="485" font-family="monospace" font-size="14" fill="#c73b2d">base0B = "#c73b2d" # Success</text>
  
  <rect x="560" y="500" width="20" height="20" rx="2" fill="#56778e"/>
  <text x="590" y="515" font-family="monospace" font-size="14" fill="#56778e">base0C = "#56778e" # Selection</text>
  
  <rect x="560" y="530" width="20" height="20" rx="2" fill="#12447d"/>
  <text x="590" y="545" font-family="monospace" font-size="14" fill="#12447d">base0D = "#12447d" # Information</text>
  
  <rect x="560" y="560" width="20" height="20" rx="2" fill="#6a4c9c"/>
  <text x="590" y="575" font-family="monospace" font-size="14" fill="#6a4c9c">base0E = "#6a4c9c" # Focus</text>
</svg>
