<?xml version="1.0" encoding="UTF-8" standalone="no"?>
<svg xmlns="http://www.w3.org/2000/svg" width="1000" height="600" viewBox="0 0 1000 600">
  <!-- Split Background - Cyberpunk inspired theme -->
  <rect x="0" y="0" width="500" height="600" fill="#0a192f"/> <!-- Deep cyber blue -->
  <rect x="500" y="0" width="500" height="600" fill="#e0ffff"/> <!-- Light cyan -->
  
  <!-- Title -->
  <text x="250" y="40" font-family="sans-serif" font-size="20" font-weight="bold" text-anchor="middle" fill="#f6f5f0">Cyberspace Dark</text>
  <text x="750" y="40" font-family="sans-serif" font-size="20" font-weight="bold" text-anchor="middle" fill="#0a192f">Cyberspace Light</text>
  
  <!-- Dark Theme Content -->
  <text x="60" y="80" font-family="monospace" font-size="14" fill="#66fcf1"># Cyberspace monochromatic scale (dark to light)</text>
  
  <rect x="60" y="100" width="20" height="20" rx="2" fill="#0a192f" stroke="#1f4287" stroke-width="1"/>
  <text x="90" y="115" font-family="monospace" font-size="14" fill="#66fcf1">base00 = "#0a192f" # DeepCyber</text>
  
  <rect x="60" y="130" width="20" height="20" rx="2" fill="#142850"/>
  <text x="90" y="145" font-family="monospace" font-size="14" fill="#66fcf1">base01 = "#142850" # DarkGrid</text>
  
  <rect x="60" y="160" width="20" height="20" rx="2" fill="#1f4287"/>
  <text x="90" y="175" font-family="monospace" font-size="14" fill="#66fcf1">base02 = "#1f4287" # MidnightBlue</text>
  
  <rect x="60" y="190" width="20" height="20" rx="2" fill="#278ea5"/>
  <text x="90" y="205" font-family="monospace" font-size="14" fill="#66fcf1">base03 = "#278ea5" # CyberTeal</text>
  
  <rect x="60" y="220" width="20" height="20" rx="2" fill="#45a29e"/>
  <text x="90" y="235" font-family="monospace" font-size="14" fill="#66fcf1">base04 = "#45a29e" # MatrixGreen</text>
  
  <rect x="60" y="250" width="20" height="20" rx="2" fill="#66fcf1"/>
  <text x="90" y="265" font-family="monospace" font-size="14" fill="#66fcf1">base05 = "#66fcf1" # ElectricCyan</text>
  
  <rect x="60" y="280" width="20" height="20" rx="2" fill="#a8d8ea"/>
  <text x="90" y="295" font-family="monospace" font-size="14" fill="#a8d8ea">base06 = "#a8d8ea" # LightCyan</text>
  
  <rect x="60" y="310" width="20" height="20" rx="2" fill="#e0ffff"/>
  <text x="90" y="325" font-family="monospace" font-size="14" fill="#e0ffff">base07 = "#e0ffff" # GlowWhite</text>
  
  <text x="60" y="360" font-family="monospace" font-size="14" fill="#66fcf1"># Functional colors</text>
  
  <rect x="60" y="380" width="20" height="20" rx="2" fill="#ff2a6d"/>
  <text x="90" y="395" font-family="monospace" font-size="14" fill="#ff2a6d">base08 = "#ff2a6d" # Error</text>
  
  <rect x="60" y="410" width="20" height="20" rx="2" fill="#f8b500"/>
  <text x="90" y="425" font-family="monospace" font-size="14" fill="#f8b500">base09 = "#f8b500" # Warning</text>
  
  <rect x="60" y="440" width="20" height="20" rx="2" fill="#ccff00"/>
  <text x="90" y="455" font-family="monospace" font-size="14" fill="#ccff00">base0A = "#ccff00" # Notice</text>
  
  <rect x="60" y="470" width="20" height="20" rx="2" fill="#05ffa1"/>
  <text x="90" y="485" font-family="monospace" font-size="14" fill="#05ffa1">base0B = "#05ffa1" # Success</text>
  
  <rect x="60" y="500" width="20" height="20" rx="2" fill="#7d17f4"/>
  <text x="90" y="515" font-family="monospace" font-size="14" fill="#7d17f4">base0C = "#7d17f4" # Selection</text>
  
  <rect x="60" y="530" width="20" height="20" rx="2" fill="#00ffd5"/>
  <text x="90" y="545" font-family="monospace" font-size="14" fill="#00ffd5">base0D = "#00ffd5" # Information</text>
  
  <rect x="60" y="560" width="20" height="20" rx="2" fill="#b967ff"/>
  <text x="90" y="575" font-family="monospace" font-size="14" fill="#b967ff">base0E = "#b967ff" # Focus</text>
  
  <!-- Light Theme Content -->
  <text x="560" y="80" font-family="monospace" font-size="14" fill="#0a192f"># Cyberspace monochromatic scale (light to dark)</text>
  
  <rect x="560" y="100" width="20" height="20" rx="2" fill="#e0ffff" stroke="#a8d8ea" stroke-width="1"/>
  <text x="590" y="115" font-family="monospace" font-size="14" fill="#0a192f">base00 = "#e0ffff" # GlowWhite</text>
  
  <rect x="560" y="130" width="20" height="20" rx="2" fill="#a8d8ea"/>
  <text x="590" y="145" font-family="monospace" font-size="14" fill="#0a192f">base01 = "#a8d8ea" # LightCyan</text>
  
  <rect x="560" y="160" width="20" height="20" rx="2" fill="#66fcf1"/>
  <text x="590" y="175" font-family="monospace" font-size="14" fill="#0a192f">base02 = "#66fcf1" # ElectricCyan</text>
  
  <rect x="560" y="190" width="20" height="20" rx="2" fill="#45a29e"/>
  <text x="590" y="205" font-family="monospace" font-size="14" fill="#0a192f">base03 = "#45a29e" # MatrixGreen</text>
  
  <rect x="560" y="220" width="20" height="20" rx="2" fill="#278ea5"/>
  <text x="590" y="235" font-family="monospace" font-size="14" fill="#0a192f">base04 = "#278ea5" # CyberTeal</text>
  
  <rect x="560" y="250" width="20" height="20" rx="2" fill="#1f4287"/>
  <text x="590" y="265" font-family="monospace" font-size="14" fill="#1f4287">base05 = "#1f4287" # MidnightBlue</text>
  
  <rect x="560" y="280" width="20" height="20" rx="2" fill="#142850"/>
  <text x="590" y="295" font-family="monospace" font-size="14" fill="#142850">base06 = "#142850" # DarkGrid</text>
  
  <rect x="560" y="310" width="20" height="20" rx="2" fill="#0a192f"/>
  <text x="590" y="325" font-family="monospace" font-size="14" fill="#0a192f">base07 = "#0a192f" # DeepCyber</text>
  
  <text x="560" y="360" font-family="monospace" font-size="14" fill="#54433a"># Functional colors</text>
  
  <rect x="560" y="380" width="20" height="20" rx="2" fill="#9b1b30"/>
  <text x="590" y="395" font-family="monospace" font-size="14" fill="#9b1b30">base08 = "#9b1b30" # Error</text>
  
  <rect x="560" y="410" width="20" height="20" rx="2" fill="#f48668"/>
  <text x="590" y="425" font-family="monospace" font-size="14" fill="#f48668">base09 = "#f48668" # Warning</text>
  
  <rect x="560" y="440" width="20" height="20" rx="2" fill="#ffdc6a"/>
  <text x="590" y="455" font-family="monospace" font-size="14" fill="#ffdc6a">base0A = "#ffdc6a" # Notice</text>
  
  <rect x="560" y="470" width="20" height="20" rx="2" fill="#03dac6"/>
  <text x="590" y="485" font-family="monospace" font-size="14" fill="#03dac6">base0B = "#03dac6" # Success</text>
  
  <rect x="560" y="500" width="20" height="20" rx="2" fill="#3498db"/>
  <text x="590" y="515" font-family="monospace" font-size="14" fill="#3498db">base0C = "#3498db" # Selection</text>
  
  <rect x="560" y="530" width="20" height="20" rx="2" fill="#0085ff"/>
  <text x="590" y="545" font-family="monospace" font-size="14" fill="#0085ff">base0D = "#0085ff" # Information</text>
  
  <rect x="560" y="560" width="20" height="20" rx="2" fill="#7e4dd2"/>
  <text x="590" y="575" font-family="monospace" font-size="14" fill="#7e4dd2">base0E = "#7e4dd2" # Focus</text>
</svg>
