<?xml version="1.0" encoding="UTF-8" standalone="no"?>
<svg xmlns="http://www.w3.org/2000/svg" width="1000" height="600" viewBox="0 0 1000 600">
  <!-- Split Background -->
  <rect x="0" y="0" width="500" height="600" fill="#1a1325"/>
  <rect x="500" y="0" width="500" height="600" fill="#e9e4f0"/>
  
  <!-- Title -->
  <text x="250" y="40" font-family="sans-serif" font-size="20" font-weight="bold" text-anchor="middle" fill="#c8b8db">Crystal Cave Dark</text>
  <text x="750" y="40" font-family="sans-serif" font-size="20" font-weight="bold" text-anchor="middle" fill="#1a1325">Crystal Cave Light</text>
  
  <!-- Dark Theme Content -->
  <text x="60" y="80" font-family="monospace" font-size="14" fill="#9a82b0"># Crystal progression (dark cave to crystal white)</text>
  
  <rect x="60" y="100" width="20" height="20" rx="2" fill="#1a1325" stroke="#3c2b52" stroke-width="1"/>
  <text x="90" y="115" font-family="monospace" font-size="14" fill="#9a82b0">base00 = "#1a1325" # Deep cave shadow</text>
  
  <rect x="60" y="130" width="20" height="20" rx="2" fill="#2a1f39"/>
  <text x="90" y="145" font-family="monospace" font-size="14" fill="#9a82b0">base01 = "#2a1f39" # Dark crystal</text>
  
  <rect x="60" y="160" width="20" height="20" rx="2" fill="#3c2b52"/>
  <text x="90" y="175" font-family="monospace" font-size="14" fill="#9a82b0">base02 = "#3c2b52" # Medium-dark crystal</text>
  
  <rect x="60" y="190" width="20" height="20" rx="2" fill="#5a4478"/>
  <text x="90" y="205" font-family="monospace" font-size="14" fill="#9a82b0">base03 = "#5a4478" # Medium crystal</text>
  
  <rect x="60" y="220" width="20" height="20" rx="2" fill="#7a6098"/>
  <text x="90" y="235" font-family="monospace" font-size="14" fill="#9a82b0">base04 = "#7a6098" # Medium-light crystal</text>
  
  <rect x="60" y="250" width="20" height="20" rx="2" fill="#9a82b0"/>
  <text x="90" y="265" font-family="monospace" font-size="14" fill="#9a82b0">base05 = "#9a82b0" # Light crystal</text>
  
  <rect x="60" y="280" width="20" height="20" rx="2" fill="#c8b8db"/>
  <text x="90" y="295" font-family="monospace" font-size="14" fill="#c8b8db">base06 = "#c8b8db" # Very light crystal</text>
  
  <rect x="60" y="310" width="20" height="20" rx="2" fill="#e9e4f0"/>
  <text x="90" y="325" font-family="monospace" font-size="14" fill="#e9e4f0">base07 = "#e9e4f0" # Crystal white</text>
  
  <text x="60" y="360" font-family="monospace" font-size="14" fill="#9a82b0"># Functional colors (gemstone-inspired)</text>
  
  <rect x="60" y="380" width="20" height="20" rx="2" fill="#8a2be2"/>
  <text x="90" y="395" font-family="monospace" font-size="14" fill="#8a2be2">base08 = "#8a2be2" # Error</text>
  
  <rect x="60" y="410" width="20" height="20" rx="2" fill="#e3a857"/>
  <text x="90" y="425" font-family="monospace" font-size="14" fill="#e3a857">base09 = "#e3a857" # Warning - citrine amber</text>
  
  <rect x="60" y="440" width="20" height="20" rx="2" fill="#d4af37"/>
  <text x="90" y="455" font-family="monospace" font-size="14" fill="#d4af37">base0A = "#d4af37" # Notice - gold</text>
  
  <rect x="60" y="470" width="20" height="20" rx="2" fill="#7fffd4"/>
  <text x="90" y="485" font-family="monospace" font-size="14" fill="#7fffd4">base0B = "#7fffd4" # Success</text>
  
  <rect x="60" y="500" width="20" height="20" rx="2" fill="#66cdaa"/>
  <text x="90" y="515" font-family="monospace" font-size="14" fill="#66cdaa">base0C = "#66cdaa" # Selection - jade</text>
  
  <rect x="60" y="530" width="20" height="20" rx="2" fill="#f7cac9"/>
  <text x="90" y="545" font-family="monospace" font-size="14" fill="#f7cac9">base0D = "#f7cac9" # Information</text>
  
  <rect x="60" y="560" width="20" height="20" rx="2" fill="#b76e79"/>
  <text x="90" y="575" font-family="monospace" font-size="14" fill="#b76e79">base0E = "#b76e79" # Focus - ruby</text>
  
  <!-- Light Theme Content -->
  <text x="560" y="80" font-family="monospace" font-size="14" fill="#5a4478"># Crystal progression (light to dark)</text>
  
  <rect x="560" y="100" width="20" height="20" rx="2" fill="#e9e4f0" stroke="#c8b8db" stroke-width="1"/>
  <text x="590" y="115" font-family="monospace" font-size="14" fill="#5a4478">base00 = "#e9e4f0" # Crystal white</text>
  
  <rect x="560" y="130" width="20" height="20" rx="2" fill="#d8cee7"/>
  <text x="590" y="145" font-family="monospace" font-size="14" fill="#5a4478">base01 = "#d8cee7" # Very light crystal</text>
  
  <rect x="560" y="160" width="20" height="20" rx="2" fill="#c8b8db"/>
  <text x="590" y="175" font-family="monospace" font-size="14" fill="#5a4478">base02 = "#c8b8db" # Light crystal</text>
  
  <rect x="560" y="190" width="20" height="20" rx="2" fill="#9a82b0"/>
  <text x="590" y="205" font-family="monospace" font-size="14" fill="#5a4478">base03 = "#9a82b0" # Medium-light crystal</text>
  
  <rect x="560" y="220" width="20" height="20" rx="2" fill="#7a6098"/>
  <text x="590" y="235" font-family="monospace" font-size="14" fill="#5a4478">base04 = "#7a6098" # Medium crystal</text>
  
  <rect x="560" y="250" width="20" height="20" rx="2" fill="#5a4478"/>
  <text x="590" y="265" font-family="monospace" font-size="14" fill="#5a4478">base05 = "#5a4478" # Medium-dark crystal</text>
  
  <rect x="560" y="280" width="20" height="20" rx="2" fill="#3c2b52"/>
  <text x="590" y="295" font-family="monospace" font-size="14" fill="#3c2b52">base06 = "#3c2b52" # Dark crystal</text>
  
  <rect x="560" y="310" width="20" height="20" rx="2" fill="#1a1325"/>
  <text x="590" y="325" font-family="monospace" font-size="14" fill="#1a1325">base07 = "#1a1325" # Deep cave shadow</text>
  
  <text x="560" y="360" font-family="monospace" font-size="14" fill="#5a4478"># Functional colors (gemstone-inspired)</text>
  
  <rect x="560" y="380" width="20" height="20" rx="2" fill="#6a0dad"/>
  <text x="590" y="395" font-family="monospace" font-size="14" fill="#6a0dad">base08 = "#6a0dad" # Error</text>
  
  <rect x="560" y="410" width="20" height="20" rx="2" fill="#b8860b"/>
  <text x="590" y="425" font-family="monospace" font-size="14" fill="#b8860b">base09 = "#b8860b" # Warning - citrine amber</text>
  
  <rect x="560" y="440" width="20" height="20" rx="2" fill="#aa8c30"/>
  <text x="590" y="455" font-family="monospace" font-size="14" fill="#aa8c30">base0A = "#aa8c30" # Notice - gold</text>
  
  <rect x="560" y="470" width="20" height="20" rx="2" fill="#45a397"/>
  <text x="590" y="485" font-family="monospace" font-size="14" fill="#45a397">base0B = "#45a397" # Success</text>
  
  <rect x="560" y="500" width="20" height="20" rx="2" fill="#3aab87"/>
  <text x="590" y="515" font-family="monospace" font-size="14" fill="#3aab87">base0C = "#3aab87" # Selection - jade</text>
  
  <rect x="560" y="530" width="20" height="20" rx="2" fill="#c48c8d"/>
  <text x="590" y="545" font-family="monospace" font-size="14" fill="#c48c8d">base0D = "#c48c8d" # Information</text>
  
  <rect x="560" y="560" width="20" height="20" rx="2" fill="#9b3a47"/>
  <text x="590" y="575" font-family="monospace" font-size="14" fill="#9b3a47">base0E = "#9b3a47" # Focus - ruby</text>
</svg>

