<svg xmlns="http://www.w3.org/2000/svg" viewBox="0 0 1000 600">
  <!-- Split Background - Purple theme -->
  <rect x="0" y="0" width="500" height="600" fill="#1e1628"/> <!-- Dark purple -->
  <rect x="500" y="0" width="500" height="600" fill="#e2d8f0"/> <!-- Light purple -->
  
  <!-- Title -->
  <text x="250" y="40" font-family="Arial, sans-serif" font-size="20" font-weight="bold" text-anchor="middle" fill="#e2d8f0">Purple Dark</text>
  <text x="750" y="40" font-family="Arial, sans-serif" font-size="20" font-weight="bold" text-anchor="middle" fill="#1e1628">Purple Light</text>
  
  <!-- Dark Theme Content -->
  <text x="60" y="80" font-family="monospace" font-size="14" fill="#a98fcc"># Purple monochromatic scale (dark to light)</text>
  
  <rect x="60" y="100" width="20" height="20" rx="2" fill="#1e1628" stroke="#4c3666" stroke-width="1"/>
  <text x="90" y="115" font-family="monospace" font-size="14" fill="#a98fcc">base00 = "#1e1628" # Darkest purple</text>
  
  <rect x="60" y="130" width="20" height="20" rx="2" fill="#2c1f3a"/>
  <text x="90" y="145" font-family="monospace" font-size="14" fill="#a98fcc">base01 = "#2c1f3a" # Very dark purple</text>
  
  <rect x="60" y="160" width="20" height="20" rx="2" fill="#3b2a4c"/>
  <text x="90" y="175" font-family="monospace" font-size="14" fill="#a98fcc">base02 = "#3b2a4c" # Dark purple</text>
  
  <rect x="60" y="190" width="20" height="20" rx="2" fill="#4c3666"/>
  <text x="90" y="205" font-family="monospace" font-size="14" fill="#a98fcc">base03 = "#4c3666" # Medium-dark purple</text>
  
  <rect x="60" y="220" width="20" height="20" rx="2" fill="#6e5299"/>
  <text x="90" y="235" font-family="monospace" font-size="14" fill="#a98fcc">base04 = "#6e5299" # Medium purple</text>
  
  <rect x="60" y="250" width="20" height="20" rx="2" fill="#a98fcc"/>
  <text x="90" y="265" font-family="monospace" font-size="14" fill="#a98fcc">base05 = "#a98fcc" # Medium-light purple</text>
  
  <rect x="60" y="280" width="20" height="20" rx="2" fill="#c4b2dd"/>
  <text x="90" y="295" font-family="monospace" font-size="14" fill="#c4b2dd">base06 = "#c4b2dd" # Light purple</text>
  
  <rect x="60" y="310" width="20" height="20" rx="2" fill="#e2d8f0"/>
  <text x="90" y="325" font-family="monospace" font-size="14" fill="#e2d8f0">base07 = "#e2d8f0" # Very light purple</text>
  
  <text x="60" y="360" font-family="monospace" font-size="14" fill="#a98fcc"># Functional colors</text>
  
  <rect x="60" y="380" width="20" height="20" rx="2" fill="#cb6077"/>
  <text x="90" y="395" font-family="monospace" font-size="14" fill="#cb6077">base08 = "#cb6077" # Error - rose</text>
  
  <rect x="60" y="410" width="20" height="20" rx="2" fill="#d28b71"/>
  <text x="90" y="425" font-family="monospace" font-size="14" fill="#d28b71">base09 = "#d28b71" # Warning - copper</text>
  
  <rect x="60" y="440" width="20" height="20" rx="2" fill="#f4bc87"/>
  <text x="90" y="455" font-family="monospace" font-size="14" fill="#f4bc87">base0A = "#f4bc87" # Notice - peach</text>
  
  <rect x="60" y="470" width="20" height="20" rx="2" fill="#beb55b"/>
  <text x="90" y="485" font-family="monospace" font-size="14" fill="#beb55b">base0B = "#beb55b" # Success - olive</text>
  
  <rect x="60" y="500" width="20" height="20" rx="2" fill="#7bbda4"/>
  <text x="90" y="515" font-family="monospace" font-size="14" fill="#7bbda4">base0C = "#7bbda4" # Selection - mint</text>
  
  <rect x="60" y="530" width="20" height="20" rx="2" fill="#8ab9d9"/>
  <text x="90" y="545" font-family="monospace" font-size="14" fill="#8ab9d9">base0D = "#8ab9d9" # Information - powder blue</text>
  
  <rect x="60" y="560" width="20" height="20" rx="2" fill="#d699b6"/>
  <text x="90" y="575" font-family="monospace" font-size="14" fill="#d699b6">base0E = "#d699b6" # Focus - pink</text>
  
  <!-- Light Theme Content -->
  <text x="560" y="80" font-family="monospace" font-size="14" fill="#4c3666"># Purple monochromatic scale (light to dark)</text>
  
  <rect x="560" y="100" width="20" height="20" rx="2" fill="#e2d8f0" stroke="#c4b2dd" stroke-width="1"/>
  <text x="590" y="115" font-family="monospace" font-size="14" fill="#4c3666">base00 = "#e2d8f0" # Very light purple</text>
  
  <rect x="560" y="130" width="20" height="20" rx="2" fill="#c4b2dd"/>
  <text x="590" y="145" font-family="monospace" font-size="14" fill="#4c3666">base01 = "#c4b2dd" # Light purple</text>
  
  <rect x="560" y="160" width="20" height="20" rx="2" fill="#a98fcc"/>
  <text x="590" y="175" font-family="monospace" font-size="14" fill="#4c3666">base02 = "#a98fcc" # Medium-light purple</text>
  
  <rect x="560" y="190" width="20" height="20" rx="2" fill="#8b71b4"/>
  <text x="590" y="205" font-family="monospace" font-size="14" fill="#4c3666">base03 = "#8b71b4" # Medium purple</text>
  
  <rect x="560" y="220" width="20" height="20" rx="2" fill="#6e5299"/>
  <text x="590" y="235" font-family="monospace" font-size="14" fill="#4c3666">base04 = "#6e5299" # Medium-dark purple</text>
  
  <rect x="560" y="250" width="20" height="20" rx="2" fill="#4c3666"/>
  <text x="590" y="265" font-family="monospace" font-size="14" fill="#4c3666">base05 = "#4c3666" # Dark purple</text>
  
  <rect x="560" y="280" width="20" height="20" rx="2" fill="#3b2a4c"/>
  <text x="590" y="295" font-family="monospace" font-size="14" fill="#3b2a4c">base06 = "#3b2a4c" # Very dark purple</text>
  
  <rect x="560" y="310" width="20" height="20" rx="2" fill="#1e1628"/>
  <text x="590" y="325" font-family="monospace" font-size="14" fill="#1e1628">base07 = "#1e1628" # Darkest purple</text>
  
  <text x="560" y="360" font-family="monospace" font-size="14" fill="#4c3666"># Functional colors</text>
  
  <rect x="560" y="380" width="20" height="20" rx="2" fill="#a73146"/>
  <text x="590" y="395" font-family="monospace" font-size="14" fill="#a73146">base08 = "#a73146" # Error - ruby</text>
  
  <rect x="560" y="410" width="20" height="20" rx="2" fill="#b65a37"/>
  <text x="590" y="425" font-family="monospace" font-size="14" fill="#b65a37">base09 = "#b65a37" # Warning - clay</text>
  
  <rect x="560" y="440" width="20" height="20" rx="2" fill="#a57a2f"/>
  <text x="590" y="455" font-family="monospace" font-size="14" fill="#a57a2f">base0A = "#a57a2f" # Notice - bronze</text>
  
  <rect x="560" y="470" width="20" height="20" rx="2" fill="#677e13"/>
  <text x="590" y="485" font-family="monospace" font-size="14" fill="#677e13">base0B = "#677e13" # Success - moss</text>
  
  <rect x="560" y="500" width="20" height="20" rx="2" fill="#178f79"/>
  <text x="590" y="515" font-family="monospace" font-size="14" fill="#178f79">base0C = "#178f79" # Selection - teal</text>
  
  <rect x="560" y="530" width="20" height="20" rx="2" fill="#2b74a9"/>
  <text x="590" y="545" font-family="monospace" font-size="14" fill="#2b74a9">base0D = "#2b74a9" # Information - steel blue</text>
  
  <rect x="560" y="560" width="20" height="20" rx="2" fill="#8a4e7d"/>
  <text x="590" y="575" font-family="monospace" font-size="14" fill="#8a4e7d">base0E = "#8a4e7d" # Focus - magenta</text>
</svg>
