<?xml version="1.0" encoding="UTF-8" standalone="yes"?>
<svg xmlns="http://www.w3.org/2000/svg" width="1000" height="630" viewBox="0 0 1000 630">
  <!-- Split Background - Arctic Aurora theme -->
  <rect x="0" y="0" width="500" height="630" fill="#0F1724"/> <!-- ArcticBackgroundDark -->
  <rect x="500" y="0" width="500" height="630" fill="#F0F8FF"/> <!-- ArcticBackgroundLight -->
  
  <!-- Title -->
  <text x="250" y="40" font-family="sans-serif" font-size="20" font-weight="bold" text-anchor="middle" fill="#A9C0D9">Arctic Aurora Dark</text>
  <text x="750" y="40" font-family="sans-serif" font-size="20" font-weight="bold" text-anchor="middle" fill="#0F1724">Arctic Aurora Light</text>
  <!-- Dark Theme Content -->
  <text x="60" y="80" font-family="monospace" font-size="14" fill="#A9C0D9"># Arctic Aurora monochromatic scale (dark to light)</text>
  
  <rect x="60" y="100" width="20" height="20" rx="2" fill="#0F1724" stroke="#1a1a1a" stroke-width="1"/>
  <text x="90" y="115" font-family="monospace" font-size="14" fill="#A9C0D9">base00 = "#0F1724" # PolarNight</text>

  <rect x="60" y="130" width="20" height="20" rx="2" fill="#1E2A3A"/>
  <text x="90" y="145" font-family="monospace" font-size="14" fill="#A9C0D9">base01 = "#1E2A3A" # ArcticDusk</text>

  <rect x="60" y="160" width="20" height="20" rx="2" fill="#2D3D50"/>
  <text x="90" y="175" font-family="monospace" font-size="14" fill="#A9C0D9">base02 = "#2D3D50" # BorealShadows</text>

  <rect x="60" y="190" width="20" height="20" rx="2" fill="#3B5066"/>
  <text x="90" y="205" font-family="monospace" font-size="14" fill="#A9C0D9">base03 = "#3B5066" # GlacialBlue</text>

  <rect x="60" y="220" width="20" height="20" rx="2" fill="#6B8CAE"/>
  <text x="90" y="235" font-family="monospace" font-size="14" fill="#A9C0D9">base04 = "#6B8CAE" # SkyGlow</text>
  
  <rect x="60" y="250" width="20" height="20" rx="2" fill="#A9C0D9"/>
  <text x="90" y="265" font-family="monospace" font-size="14" fill="#A9C0D9">base05 = "#A9C0D9" # FrostBlue</text>

  <rect x="60" y="280" width="20" height="20" rx="2" fill="#D5E3F0"/>
  <text x="90" y="295" font-family="monospace" font-size="14" fill="#D5E3F0">base06 = "#D5E3F0" # PaleFrost</text>

  <rect x="60" y="310" width="20" height="20" rx="2" fill="#F0F8FF"/>
  <text x="90" y="325" font-family="monospace" font-size="14" fill="#F0F8FF">base07 = "#F0F8FF" # AuroraWhite</text>
  
  <text x="60" y="360" font-family="monospace" font-size="14" fill="#A9C0D9"># Functional colors </text>
  
  <rect x="60" y="380" width="20" height="20" rx="2" fill="#63E089"/>
  <text x="90" y="395" font-family="monospace" font-size="14" fill="#63E089">base08 = "#63E089" # AuroraMint</text>

  <rect x="60" y="410" width="20" height="20" rx="2" fill="#E077CB"/>
  <text x="90" y="425" font-family="monospace" font-size="14" fill="#E077CB">base09 = "#E077CB" # AuroraPink</text>

  <rect x="60" y="440" width="20" height="20" rx="2" fill="#F1C85A"/>
  <text x="90" y="455" font-family="monospace" font-size="14" fill="#F1C85A">base0A = "#F1C85A" # AuroraGold</text>

  <rect x="60" y="470" width="20" height="20" rx="2" fill="#1C4B8C"/>
  <text x="90" y="485" font-family="monospace" font-size="14" fill="#1C4B8C">base0B = "#1C4B8C" # DeepBlue</text>
  
  <rect x="60" y="500" width="20" height="20" rx="2" fill="#4AAAED"/>
  <text x="90" y="515" font-family="monospace" font-size="14" fill="#4AAAED">base0C = "#4AAAED" # BrightSky</text>

  <rect x="60" y="530" width="20" height="20" rx="2" fill="#5D88B3"/>
  <text x="90" y="545" font-family="monospace" font-size="14" fill="#5D88B3">base0D = "#5D88B3" # ArcticAzure</text>

  <rect x="60" y="560" width="20" height="20" rx="2" fill="#BE76C8"/>
  <text x="90" y="575" font-family="monospace" font-size="14" fill="#BE76C8">base0E = "#BE76C8" # NorthernPurple</text>

  <rect x="60" y="590" width="20" height="20" rx="2" fill="#7AB87A"/>
  <text x="90" y="605" font-family="monospace" font-size="14" fill="#7AB87A">base0F = "#7AB87A" # AuroraGreen</text>

  <!-- Light Theme Content -->
  <text x="560" y="80" font-family="monospace" font-size="14" fill="#0F1724"># Arctic Aurora monochromatic scale (light to dark)</text>
  
  <rect x="560" y="100" width="20" height="20" rx="2" fill="#F0F8FF" stroke="#0F1724" stroke-width="1"/>
  <text x="590" y="115" font-family="monospace" font-size="14" fill="#2D3D50">base00 = "#F0F8FF" # AuroraSnow</text>

  <rect x="560" y="130" width="20" height="20" rx="2" fill="#D5E3F0"/>
  <text x="590" y="145" font-family="monospace" font-size="14" fill="#2D3D50">base01 = "#D5E3F0" # FrostLight</text>

  <rect x="560" y="160" width="20" height="20" rx="2" fill="#A9C0D9"/>
  <text x="590" y="175" font-family="monospace" font-size="14" fill="#2D3D50">base02 = "#A9C0D9" # AuroraVeil</text>

  <rect x="560" y="190" width="20" height="20" rx="2" fill="#6B8CAE"/>
  <text x="590" y="205" font-family="monospace" font-size="14" fill="#2D3D50">base03 = "#6B8CAE" # SkyGlow</text>

  <rect x="560" y="220" width="20" height="20" rx="2" fill="#3B5066"/>
  <text x="590" y="235" font-family="monospace" font-size="14" fill="#2D3D50">base04 = "#3B5066" # GlacialBlue</text>

  <rect x="560" y="250" width="20" height="20" rx="2" fill="#2D3D50"/>
  <text x="590" y="265" font-family="monospace" font-size="14" fill="#2D3D50">base05 = "#2D3D50" # BorealShadows</text>

  <rect x="560" y="280" width="20" height="20" rx="2" fill="#1E2A3A"/>
  <text x="590" y="295" font-family="monospace" font-size="14" fill="#1E2A3A">base06 = "#1E2A3A" # ArcticDusk</text>

  <rect x="560" y="310" width="20" height="20" rx="2" fill="#0F1724"/>
  <text x="590" y="325" font-family="monospace" font-size="14" fill="#0F1724">base07 = "#0F1724" # PolarNight</text>
  
  <text x="560" y="360" font-family="monospace" font-size="14" fill="#0F1724"># Functional colors </text>
  
  <rect x="560" y="380" width="20" height="20" rx="2" fill="#32B055"/>
  <text x="590" y="395" font-family="monospace" font-size="14" fill="#32B055">base08 = "#32B055" # CrystalGreen</text>

  <rect x="560" y="410" width="20" height="20" rx="2" fill="#C44AAD"/>
  <text x="590" y="425" font-family="monospace" font-size="14" fill="#C44AAD">base09 = "#C44AAD" # PolarPink</text>

  <rect x="560" y="440" width="20" height="20" rx="2" fill="#E0AA23"/>
  <text x="590" y="455" font-family="monospace" font-size="14" fill="#E0AA23">base0A = "#E0AA23" # DawnGold</text>
  
  <rect x="560" y="470" width="20" height="20" rx="2" fill="#073978"/>
  <text x="590" y="485" font-family="monospace" font-size="14" fill="#073978">base0B = "#073978" # DeepIce</text>

  <rect x="560" y="500" width="20" height="20" rx="2" fill="#1A8FDE"/>
  <text x="590" y="515" font-family="monospace" font-size="14" fill="#1A8FDE">base0C = "#1A8FDE" # GlacierBlue</text>

  <rect x="560" y="530" width="20" height="20" rx="2" fill="#2D5483"/>
  <text x="590" y="545" font-family="monospace" font-size="14" fill="#2D5483">base0D = "#2D5483" # FrostBlue</text>

  <rect x="560" y="560" width="20" height="20" rx="2" fill="#9548A2"/>
  <text x="590" y="575" font-family="monospace" font-size="14" fill="#9548A2">base0E = "#9548A2" # TwilightPurple</text>

  <rect x="560" y="590" width="20" height="20" rx="2" fill="#4A9F4A"/>
  <text x="590" y="605" font-family="monospace" font-size="14" fill="#4A9F4A">base0F = "#4A9F4A" # EvergreenAurora</text>
</svg>
