<?xml version="1.0" encoding="UTF-8" standalone="no"?>
<svg xmlns="http://www.w3.org/2000/svg" width="1000" height="600" viewBox="0 0 1000 600">
  <!-- Split Background - Nocturnal Forest inspired theme -->
  <rect x="0" y="0" width="500" height="600" fill="#0f1a12"/> <!-- Deep forest green -->
  <rect x="500" y="0" width="500" height="600" fill="#ebefe9"/> <!-- Moonlit silver white -->
  
  <!-- Title -->
  <text x="250" y="40" font-family="sans-serif" font-size="20" font-weight="bold" text-anchor="middle" fill="#ebefe9">Forest Night Dark</text>
  <text x="750" y="40" font-family="sans-serif" font-size="20" font-weight="bold" text-anchor="middle" fill="#0f1a12">Forest Night Light</text>
  
  <!-- Dark Theme Content -->
  <text x="60" y="80" font-family="monospace" font-size="14" fill="#678568"># Forest Night monochromatic scale (dark to light)</text>
  
  <rect x="60" y="100" width="20" height="20" rx="2" fill="#0f1a12" stroke="#2c3c2f" stroke-width="1"/>
  <text x="90" y="115" font-family="monospace" font-size="14" fill="#678568">base00 = "#0f1a12" # Deep forest</text>
  
  <rect x="60" y="130" width="20" height="20" rx="2" fill="#192821"/>
  <text x="90" y="145" font-family="monospace" font-size="14" fill="#678568">base01 = "#192821" # Pine shadow</text>
  
  <rect x="60" y="160" width="20" height="20" rx="2" fill="#2c3c2f"/>
  <text x="90" y="175" font-family="monospace" font-size="14" fill="#678568">base02 = "#2c3c2f" # Moss dark</text>
  
  <rect x="60" y="190" width="20" height="20" rx="2" fill="#435645"/>
  <text x="90" y="205" font-family="monospace" font-size="14" fill="#678568">base03 = "#435645" # Forest floor</text>
  
  <rect x="60" y="220" width="20" height="20" rx="2" fill="#678568"/>
  <text x="90" y="235" font-family="monospace" font-size="14" fill="#678568">base04 = "#678568" # Fern green</text>
  
  <rect x="60" y="250" width="20" height="20" rx="2" fill="#8aa894"/>
  <text x="90" y="265" font-family="monospace" font-size="14" fill="#8aa894">base05 = "#8aa894" # Misty leaves</text>
  
  <rect x="60" y="280" width="20" height="20" rx="2" fill="#b3c4ba"/>
  <text x="90" y="295" font-family="monospace" font-size="14" fill="#b3c4ba">base06 = "#b3c4ba" # Moonlit canopy</text>
  
  <rect x="60" y="310" width="20" height="20" rx="2" fill="#ebefe9"/>
  <text x="90" y="325" font-family="monospace" font-size="14" fill="#ebefe9">base07 = "#ebefe9" # Moonlight silver</text>
  
  <text x="60" y="360" font-family="monospace" font-size="14" fill="#8aa894"># Functional colors </text>
  
  <rect x="60" y="380" width="20" height="20" rx="2" fill="#abcb7e"/>
  <text x="90" y="395" font-family="monospace" font-size="14" fill="#abcb7e">base08 = "#abcb7e" # Error</text>
  
  <rect x="60" y="410" width="20" height="20" rx="2" fill="#e3c078"/>
  <text x="90" y="425" font-family="monospace" font-size="14" fill="#e3c078">base09 = "#e3c078" # Warning</text>
  
  <rect x="60" y="440" width="20" height="20" rx="2" fill="#c9b154"/>
  <text x="90" y="455" font-family="monospace" font-size="14" fill="#c9b154">base0A = "#c9b154" # Notice</text>
  
  <rect x="60" y="470" width="20" height="20" rx="2" fill="#78a8c0"/>
  <text x="90" y="485" font-family="monospace" font-size="14" fill="#78a8c0">base0B = "#78a8c0" # Success</text>
  
  <rect x="60" y="500" width="20" height="20" rx="2" fill="#a5d6e7"/>
  <text x="90" y="515" font-family="monospace" font-size="14" fill="#a5d6e7">base0C = "#a5d6e7" # Selection</text>
  
  <rect x="60" y="530" width="20" height="20" rx="2" fill="#604c38"/>
  <text x="90" y="545" font-family="monospace" font-size="14" fill="#604c38">base0D = "#604c38" # Information</text>
  
  <rect x="60" y="560" width="20" height="20" rx="2" fill="#85a7b3"/>
  <text x="90" y="575" font-family="monospace" font-size="14" fill="#85a7b3">base0E = "#85a7b3" # Focus</text>
  
  <!-- Light Theme Content -->
  <text x="560" y="80" font-family="monospace" font-size="14" fill="#435645"># Forest Night monochromatic scale (light to dark)</text>
  
  <rect x="560" y="100" width="20" height="20" rx="2" fill="#ebefe9" stroke="#b3c4ba" stroke-width="1"/>
  <text x="590" y="115" font-family="monospace" font-size="14" fill="#435645">base00 = "#ebefe9" # Moonlight silver</text>
  
  <rect x="560" y="130" width="20" height="20" rx="2" fill="#d8e1db"/>
  <text x="590" y="145" font-family="monospace" font-size="14" fill="#435645">base01 = "#d8e1db" # Morning mist</text>
  
  <rect x="560" y="160" width="20" height="20" rx="2" fill="#b3c4ba"/>
  <text x="590" y="175" font-family="monospace" font-size="14" fill="#435645">base02 = "#b3c4ba" # Moonlit canopy</text>
  
  <rect x="560" y="190" width="20" height="20" rx="2" fill="#8aa894"/>
  <text x="590" y="205" font-family="monospace" font-size="14" fill="#435645">base03 = "#8aa894" # Misty leaves</text>
  
  <rect x="560" y="220" width="20" height="20" rx="2" fill="#678568"/>
  <text x="590" y="235" font-family="monospace" font-size="14" fill="#435645">base04 = "#678568" # Fern green</text>
  
  <rect x="560" y="250" width="20" height="20" rx="2" fill="#435645"/>
  <text x="590" y="265" font-family="monospace" font-size="14" fill="#435645">base05 = "#435645" # Forest floor</text>
  
  <rect x="560" y="280" width="20" height="20" rx="2" fill="#2c3c2f"/>
  <text x="590" y="295" font-family="monospace" font-size="14" fill="#2c3c2f">base06 = "#2c3c2f" # Moss dark</text>
  
  <rect x="560" y="310" width="20" height="20" rx="2" fill="#0f1a12"/>
  <text x="590" y="325" font-family="monospace" font-size="14" fill="#0f1a12">base07 = "#0f1a12" # Deep forest</text>
  
  <text x="560" y="360" font-family="monospace" font-size="14" fill="#435645"># Functional colors</text>
  
  <rect x="560" y="380" width="20" height="20" rx="2" fill="#8fae62"/>
  <text x="590" y="395" font-family="monospace" font-size="14" fill="#8fae62">base08 = "#8fae62" # Error</text>
  
  <rect x="560" y="410" width="20" height="20" rx="2" fill="#c9a45b"/>
  <text x="590" y="425" font-family="monospace" font-size="14" fill="#c9a45b">base09 = "#c9a45b" # Warning</text>
  
  <rect x="560" y="440" width="20" height="20" rx="2" fill="#b59c3e"/>
  <text x="590" y="455" font-family="monospace" font-size="14" fill="#b59c3e">base0A = "#b59c3e" # Notice</text>
  
  <rect x="560" y="470" width="20" height="20" rx="2" fill="#5389a0"/>
  <text x="590" y="485" font-family="monospace" font-size="14" fill="#5389a0">base0B = "#5389a0" # Success</text>
  
  <rect x="560" y="500" width="20" height="20" rx="2" fill="#72a8c0"/>
  <text x="590" y="515" font-family="monospace" font-size="14" fill="#72a8c0">base0C = "#72a8c0" # Selection</text>
  
  <rect x="560" y="530" width="20" height="20" rx="2" fill="#483825"/>
  <text x="590" y="545" font-family="monospace" font-size="14" fill="#483825">base0D = "#483825" # Information</text>
  
  <rect x="560" y="560" width="20" height="20" rx="2" fill="#658996"/>
  <text x="590" y="575" font-family="monospace" font-size="14" fill="#658996">base0E = "#658996" # Focus</text>
</svg>

