<?xml version="1.0" encoding="UTF-8" standalone="no"?>
<svg xmlns="http://www.w3.org/2000/svg" width="1000" height="600" viewBox="0 0 1000 600">
  <!-- Split Background - Matrix theme -->
  <rect x="0" y="0" width="500" height="600" fill="#0a0f00"/> <!-- Deep black -->
  <rect x="500" y="0" width="500" height="600" fill="#f0fff0"/> <!-- Light matrix -->
  
  <!-- Title -->
  <text x="250" y="40" font-family="sans-serif" font-size="20" font-weight="bold" text-anchor="middle" fill="#00ff00">Matrix Dark</text>
  <text x="750" y="40" font-family="sans-serif" font-size="20" font-weight="bold" text-anchor="middle" fill="#003300">Matrix Light</text>
  
  <!-- Dark Theme Content -->
  <text x="60" y="80" font-family="monospace" font-size="14" fill="#37c837"># Matrix monochromatic scale (dark to light)</text>
  
  <rect x="60" y="100" width="20" height="20" rx="2" fill="#0a0f00" stroke="#143214" stroke-width="1"/>
  <text x="90" y="115" font-family="monospace" font-size="14" fill="#37c837">base00 = "#0a0f00" # DeepBlack</text>
  
  <rect x="60" y="130" width="20" height="20" rx="2" fill="#143214"/>
  <text x="90" y="145" font-family="monospace" font-size="14" fill="#37c837">base01 = "#143214" # DeepGreen</text>
  
  <rect x="60" y="160" width="20" height="20" rx="2" fill="#1e4b1e"/>
  <text x="90" y="175" font-family="monospace" font-size="14" fill="#37c837">base02 = "#1e4b1e" # LowGreen</text>
  
  <rect x="60" y="190" width="20" height="20" rx="2" fill="#206420"/>
  <text x="90" y="205" font-family="monospace" font-size="14" fill="#37c837">base03 = "#206420" # MidGreen</text>
  
  <rect x="60" y="220" width="20" height="20" rx="2" fill="#37c837"/>
  <text x="90" y="235" font-family="monospace" font-size="14" fill="#37c837">base04 = "#37c837" # BrightGreen</text>
  
  <rect x="60" y="250" width="20" height="20" rx="2" fill="#00ff00"/>
  <text x="90" y="265" font-family="monospace" font-size="14" fill="#00ff00">base05 = "#00ff00" # MatrixGreen</text>
  
  <rect x="60" y="280" width="20" height="20" rx="2" fill="#92ff92"/>
  <text x="90" y="295" font-family="monospace" font-size="14" fill="#92ff92">base06 = "#92ff92" # LightGreen</text>
  
  <rect x="60" y="310" width="20" height="20" rx="2" fill="#f0fff0"/>
  <text x="90" y="325" font-family="monospace" font-size="14" fill="#f0fff0">base07 = "#f0fff0" # MatrixWhite</text>
  
  <text x="60" y="360" font-family="monospace" font-size="14" fill="#a29990"># Functional colors </text>
  
  <rect x="60" y="380" width="20" height="20" rx="2" fill="#ff0000"/>
  <text x="90" y="395" font-family="monospace" font-size="14" fill="#ff0000">base08 = "#ff0000" # Error</text>
  
  <rect x="60" y="410" width="20" height="20" rx="2" fill="#ffcc00"/>
  <text x="90" y="425" font-family="monospace" font-size="14" fill="#ffcc00">base09 = "#ffcc00" # Warning</text>
  
  <rect x="60" y="440" width="20" height="20" rx="2" fill="#aaff00"/>
  <text x="90" y="455" font-family="monospace" font-size="14" fill="#aaff00">base0A = "#aaff00" # Notice</text>
  
  <rect x="60" y="470" width="20" height="20" rx="2" fill="#00ff00"/>
  <text x="90" y="485" font-family="monospace" font-size="14" fill="#00ff00">base0B = "#00ff00" # Success</text>
  
  <rect x="60" y="500" width="20" height="20" rx="2" fill="#97ffbd"/>
  <text x="90" y="515" font-family="monospace" font-size="14" fill="#97ffbd">base0C = "#97ffbd" # Selection</text>
  
  <rect x="60" y="530" width="20" height="20" rx="2" fill="#00ffff"/>
  <text x="90" y="545" font-family="monospace" font-size="14" fill="#00ffff">base0D = "#00ffff" # Information</text>
  
  <rect x="60" y="560" width="20" height="20" rx="2" fill="#ff00ff"/>
  <text x="90" y="575" font-family="monospace" font-size="14" fill="#ff00ff">base0E = "#ff00ff" # Focus</text>
  
  <!-- Light Theme Content -->
  <text x="560" y="80" font-family="monospace" font-size="14" fill="#003300"># Matrix monochromatic scale (light to dark)</text>
  
  <rect x="560" y="100" width="20" height="20" rx="2" fill="#f0fff0" stroke="#92ff92" stroke-width="1"/>
  <text x="590" y="115" font-family="monospace" font-size="14" fill="#003300">base00 = "#f0fff0" # MatrixWhite</text>
  
  <rect x="560" y="130" width="20" height="20" rx="2" fill="#d2ffd2"/>
  <text x="590" y="145" font-family="monospace" font-size="14" fill="#003300">base01 = "#d2ffd2" # PaleGreen</text>
  
  <rect x="560" y="160" width="20" height="20" rx="2" fill="#92ff92"/>
  <text x="590" y="175" font-family="monospace" font-size="14" fill="#003300">base02 = "#92ff92" # LightGreen</text>
  
  <rect x="560" y="190" width="20" height="20" rx="2" fill="#70e070"/>
  <text x="590" y="205" font-family="monospace" font-size="14" fill="#003300">base03 = "#70e070" # MediumGreen</text>
  
  <rect x="560" y="220" width="20" height="20" rx="2" fill="#37c837"/>
  <text x="590" y="235" font-family="monospace" font-size="14" fill="#003300">base04 = "#37c837" # BrightGreen</text>
  
  <rect x="560" y="250" width="20" height="20" rx="2" fill="#00ff00"/>
  <text x="590" y="265" font-family="monospace" font-size="14" fill="#003300">base05 = "#00ff00" # MatrixGreen</text>
  
  <rect x="560" y="280" width="20" height="20" rx="2" fill="#1e4b1e"/>
  <text x="590" y="295" font-family="monospace" font-size="14" fill="#1e4b1e">base06 = "#1e4b1e" # LowGreen</text>
  
  <rect x="560" y="310" width="20" height="20" rx="2" fill="#0a0f00"/>
  <text x="590" y="325" font-family="monospace" font-size="14" fill="#0a0f00">base07 = "#0a0f00" # DeepBlack</text>
  
  <text x="560" y="360" font-family="monospace" font-size="14" fill="#003300"># Functional colors</text>
  
  <rect x="560" y="380" width="20" height="20" rx="2" fill="#cc0000"/>
  <text x="590" y="395" font-family="monospace" font-size="14" fill="#cc0000">base08 = "#cc0000" # Error</text>
  
  <rect x="560" y="410" width="20" height="20" rx="2" fill="#cc9900"/>
  <text x="590" y="425" font-family="monospace" font-size="14" fill="#cc9900">base09 = "#cc9900" # Warning</text>
  
  <rect x="560" y="440" width="20" height="20" rx="2" fill="#88cc00"/>
  <text x="590" y="455" font-family="monospace" font-size="14" fill="#88cc00">base0A = "#88cc00" # Notice</text>
  
  <rect x="560" y="470" width="20" height="20" rx="2" fill="#00cc00"/>
  <text x="590" y="485" font-family="monospace" font-size="14" fill="#00cc00">base0B = "#00cc00" # Success</text>
  
  <rect x="560" y="500" width="20" height="20" rx="2" fill="#66cc99"/>
  <text x="590" y="515" font-family="monospace" font-size="14" fill="#66cc99">base0C = "#66cc99" # Selection</text>
  
  <rect x="560" y="530" width="20" height="20" rx="2" fill="#00cccc"/>
  <text x="590" y="545" font-family="monospace" font-size="14" fill="#00cccc">base0D = "#00cccc" # Information</text>
  
  <rect x="560" y="560" width="20" height="20" rx="2" fill="#cc00cc"/>
  <text x="590" y="575" font-family="monospace" font-size="14" fill="#cc00cc">base0E = "#cc00cc" # Focus</text>
</svg>
