<?xml version="1.0" encoding="UTF-8" standalone="no"?>
<svg xmlns="http://www.w3.org/2000/svg" width="1000" height="600" viewBox="0 0 1000 600">
  <!-- Split Background - Desert inspired theme -->
  <rect x="0" y="0" width="500" height="600" fill="#2e231b"/> <!-- Deep terracotta dark -->
  <rect x="500" y="0" width="500" height="600" fill="#f7f3eb"/> <!-- Sand white -->
  
  <!-- Title -->
  <text x="250" y="40" font-family="sans-serif" font-size="20" font-weight="bold" text-anchor="middle" fill="#f7f3eb">Desert Dark</text>
  <text x="750" y="40" font-family="sans-serif" font-size="20" font-weight="bold" text-anchor="middle" fill="#2e231b">Desert Light</text>
  
  <!-- Dark Theme Content -->
  <text x="60" y="80" font-family="monospace" font-size="14" fill="#a08f80"># Desert monochromatic scale (dark to light)</text>
  
  <rect x="60" y="100" width="20" height="20" rx="2" fill="#2e231b" stroke="#5d4a3e" stroke-width="1"/>
  <text x="90" y="115" font-family="monospace" font-size="14" fill="#a08f80">base00 = "#2e231b" # Deep terracotta</text>
  
  <rect x="60" y="130" width="20" height="20" rx="2" fill="#3d3026"/>
  <text x="90" y="145" font-family="monospace" font-size="14" fill="#a08f80">base01 = "#3d3026" # Dark sand</text>
  
  <rect x="60" y="160" width="20" height="20" rx="2" fill="#4d3c30"/>
  <text x="90" y="175" font-family="monospace" font-size="14" fill="#a08f80">base02 = "#4d3c30" # Rustic brown</text>
  
  <rect x="60" y="190" width="20" height="20" rx="2" fill="#5d4a3e"/>
  <text x="90" y="205" font-family="monospace" font-size="14" fill="#a08f80">base03 = "#5d4a3e" # Mesa brown</text>
  
  <rect x="60" y="220" width="20" height="20" rx="2" fill="#7e6b5d"/>
  <text x="90" y="235" font-family="monospace" font-size="14" fill="#a08f80">base04 = "#7e6b5d" # Canyon rock</text>
  
  <rect x="60" y="250" width="20" height="20" rx="2" fill="#a08f80"/>
  <text x="90" y="265" font-family="monospace" font-size="14" fill="#a08f80">base05 = "#a08f80" # Dune sand</text>
  
  <rect x="60" y="280" width="20" height="20" rx="2" fill="#d0c8b9"/>
  <text x="90" y="295" font-family="monospace" font-size="14" fill="#d0c8b9">base06 = "#d0c8b9" # Bleached sand</text>
  
  <rect x="60" y="310" width="20" height="20" rx="2" fill="#f7f3eb"/>
  <text x="90" y="325" font-family="monospace" font-size="14" fill="#f7f3eb">base07 = "#f7f3eb" # Desert white</text>
  
  <text x="60" y="360" font-family="monospace" font-size="14" fill="#a08f80"># Functional colors </text>
  
  <rect x="60" y="380" width="20" height="20" rx="2" fill="#6a7b62"/>
  <text x="90" y="395" font-family="monospace" font-size="14" fill="#6a7b62">base08 = "#6a7b62" # Error</text>
  
  <rect x="60" y="410" width="20" height="20" rx="2" fill="#ab6444"/>
  <text x="90" y="425" font-family="monospace" font-size="14" fill="#ab6444">base09 = "#ab6444" # Warning</text>
  
  <rect x="60" y="440" width="20" height="20" rx="2" fill="#caa06c"/>
  <text x="90" y="455" font-family="monospace" font-size="14" fill="#caa06c">base0A = "#caa06c" # Notice</text>
  
  <rect x="60" y="470" width="20" height="20" rx="2" fill="#b35d3a"/>
  <text x="90" y="485" font-family="monospace" font-size="14" fill="#b35d3a">base0B = "#b35d3a" # Success</text>
  
  <rect x="60" y="500" width="20" height="20" rx="2" fill="#968a75"/>
  <text x="90" y="515" font-family="monospace" font-size="14" fill="#968a75">base0C = "#968a75" # Selection</text>
  
  <rect x="60" y="530" width="20" height="20" rx="2" fill="#d2691e"/>
  <text x="90" y="545" font-family="monospace" font-size="14" fill="#d2691e">base0D = "#d2691e" # Information</text>
  
  <rect x="60" y="560" width="20" height="20" rx="2" fill="#a37a58"/>
  <text x="90" y="575" font-family="monospace" font-size="14" fill="#a37a58">base0E = "#a37a58" # Focus</text>
  
  <!-- Light Theme Content -->
  <text x="560" y="80" font-family="monospace" font-size="14" fill="#5d4a3e"># Desert monochromatic scale (light to dark)</text>
  
  <rect x="560" y="100" width="20" height="20" rx="2" fill="#f7f3eb" stroke="#d0c8b9" stroke-width="1"/>
  <text x="590" y="115" font-family="monospace" font-size="14" fill="#5d4a3e">base00 = "#f7f3eb" # Desert white</text>
  
  <rect x="560" y="130" width="20" height="20" rx="2" fill="#e8e1d4"/>
  <text x="590" y="145" font-family="monospace" font-size="14" fill="#5d4a3e">base01 = "#e8e1d4" # Light sand</text>
  
  <rect x="560" y="160" width="20" height="20" rx="2" fill="#d0c8b9"/>
  <text x="590" y="175" font-family="monospace" font-size="14" fill="#5d4a3e">base02 = "#d0c8b9" # Bleached sand</text>
  
  <rect x="560" y="190" width="20" height="20" rx="2" fill="#a08f80"/>
  <text x="590" y="205" font-family="monospace" font-size="14" fill="#5d4a3e">base03 = "#a08f80" # Dune sand</text>
  
  <rect x="560" y="220" width="20" height="20" rx="2" fill="#7e6b5d"/>
  <text x="590" y="235" font-family="monospace" font-size="14" fill="#5d4a3e">base04 = "#7e6b5d" # Canyon rock</text>
  
  <rect x="560" y="250" width="20" height="20" rx="2" fill="#5d4a3e"/>
  <text x="590" y="265" font-family="monospace" font-size="14" fill="#5d4a3e">base05 = "#5d4a3e" # Mesa brown</text>
  
  <rect x="560" y="280" width="20" height="20" rx="2" fill="#4d3c30"/>
  <text x="590" y="295" font-family="monospace" font-size="14" fill="#4d3c30">base06 = "#4d3c30" # Rustic brown</text>
  
  <rect x="560" y="310" width="20" height="20" rx="2" fill="#2e231b"/>
  <text x="590" y="325" font-family="monospace" font-size="14" fill="#2e231b">base07 = "#2e231b" # Deep terracotta</text>
  
  <text x="560" y="360" font-family="monospace" font-size="14" fill="#5d4a3e"># Functional colors</text>
  
  <rect x="560" y="380" width="20" height="20" rx="2" fill="#4f5d49"/>
  <text x="590" y="395" font-family="monospace" font-size="14" fill="#4f5d49">base08 = "#4f5d49" # Error</text>
  
  <rect x="560" y="410" width="20" height="20" rx="2" fill="#8d462b"/>
  <text x="590" y="425" font-family="monospace" font-size="14" fill="#8d462b">base09 = "#8d462b" # Warning</text>
  
  <rect x="560" y="440" width="20" height="20" rx="2" fill="#a17a46"/>
  <text x="590" y="455" font-family="monospace" font-size="14" fill="#a17a46">base0A = "#a17a46" # Notice</text>
  
  <rect x="560" y="470" width="20" height="20" rx="2" fill="#9c4427"/>
  <text x="590" y="485" font-family="monospace" font-size="14" fill="#9c4427">base0B = "#9c4427" # Success</text>
  
  <rect x="560" y="500" width="20" height="20" rx="2" fill="#7c725e"/>
  <text x="590" y="515" font-family="monospace" font-size="14" fill="#7c725e">base0C = "#7c725e" # Selection</text>
  
  <rect x="560" y="530" width="20" height="20" rx="2" fill="#b15a19"/>
  <text x="590" y="545" font-family="monospace" font-size="14" fill="#b15a19">base0D = "#b15a19" # Information</text>
  
  <rect x="560" y="560" width="20" height="20" rx="2" fill="#865532"/>
  <text x="590" y="575" font-family="monospace" font-size="14" fill="#865532">base0E = "#865532" # Focus</text>
</svg>

