<?xml version="1.0" encoding="UTF-8" standalone="no"?>
<svg xmlns="http://www.w3.org/2000/svg" width="1000" height="600" viewBox="0 0 1000 600">
  <!-- Split Background - Volcanic theme -->
  <rect x="0" y="0" width="500" height="600" fill="#191514"/> <!-- Dark volcanic -->
  <rect x="500" y="0" width="500" height="600" fill="#E5E0DD"/> <!-- Light volcanic -->
  
  <!-- Title -->
  <text x="250" y="40" font-family="sans-serif" font-size="20" font-weight="bold" text-anchor="middle" fill="#E5E0DD">Volcanic Dark</text>
  <text x="750" y="40" font-family="sans-serif" font-size="20" font-weight="bold" text-anchor="middle" fill="#191514">Volcanic Light</text>
  
  <!-- Dark Theme Content -->
  <text x="60" y="80" font-family="monospace" font-size="14" fill="#A19A95"># Volcanic monochromatic scale (dark to light)</text>
  
  <rect x="60" y="100" width="20" height="20" rx="2" fill="#191514" stroke="#514845" stroke-width="1"/>
  <text x="90" y="115" font-family="monospace" font-size="14" fill="#A19A95">base00 = "#191514" # Obsidian Black</text>
  
  <rect x="60" y="130" width="20" height="20" rx="2" fill="#2C2624"/>
  <text x="90" y="145" font-family="monospace" font-size="14" fill="#A19A95">base01 = "#2C2624" # Basalt</text>
  
  <rect x="60" y="160" width="20" height="20" rx="2" fill="#3F3734"/>
  <text x="90" y="175" font-family="monospace" font-size="14" fill="#A19A95">base02 = "#3F3734" # Pumice</text>
  
  <rect x="60" y="190" width="20" height="20" rx="2" fill="#514845"/>
  <text x="90" y="205" font-family="monospace" font-size="14" fill="#A19A95">base03 = "#514845" # Lava Stone</text>
  
  <rect x="60" y="220" width="20" height="20" rx="2" fill="#746B66"/>
  <text x="90" y="235" font-family="monospace" font-size="14" fill="#A19A95">base04 = "#746B66" # Igneous</text>
  
  <rect x="60" y="250" width="20" height="20" rx="2" fill="#A19A95"/>
  <text x="90" y="265" font-family="monospace" font-size="14" fill="#A19A95">base05 = "#A19A95" # Volcanic Ash</text>
  
  <rect x="60" y="280" width="20" height="20" rx="2" fill="#CCC6C2"/>
  <text x="90" y="295" font-family="monospace" font-size="14" fill="#CCC6C2">base06 = "#CCC6C2" # Smoke</text>
  
  <rect x="60" y="310" width="20" height="20" rx="2" fill="#E5E0DD"/>
  <text x="90" y="325" font-family="monospace" font-size="14" fill="#E5E0DD">base07 = "#E5E0DD" # Steam</text>
  
  <text x="60" y="360" font-family="monospace" font-size="14" fill="#A19A95"># Functional colors</text>
  
  <rect x="60" y="380" width="20" height="20" rx="2" fill="#CC3F26"/>
  <text x="90" y="395" font-family="monospace" font-size="14" fill="#CC3F26">base08 = "#CC3F26" # Error</text>

  <rect x="60" y="410" width="20" height="20" rx="2" fill="#DE7C31"/>
  <text x="90" y="425" font-family="monospace" font-size="14" fill="#DE7C31">base09 = "#DE7C31" # Warning</text>

  <rect x="60" y="440" width="20" height="20" rx="2" fill="#E8B026"/>
  <text x="90" y="455" font-family="monospace" font-size="14" fill="#E8B026">base0A = "#E8B026" # Notice</text>

  <rect x="60" y="470" width="20" height="20" rx="2" fill="#5D9F4F"/>
  <text x="90" y="485" font-family="monospace" font-size="14" fill="#5D9F4F">base0B = "#5D9F4F" # Success</text>

  <rect x="60" y="500" width="20" height="20" rx="2" fill="#5F9893"/>
  <text x="90" y="515" font-family="monospace" font-size="14" fill="#5F9893">base0C = "#5F9893" # Selection</text>

  <rect x="60" y="530" width="20" height="20" rx="2" fill="#5878AA"/>
  <text x="90" y="545" font-family="monospace" font-size="14" fill="#5878AA">base0D = "#5878AA" # Information</text>

  <rect x="60" y="560" width="20" height="20" rx="2" fill="#9071B0"/>
  <text x="90" y="575" font-family="monospace" font-size="14" fill="#9071B0">base0E = "#9071B0" # Focus</text>
  
  <!-- Light Theme Content -->
  <text x="560" y="80" font-family="monospace" font-size="14" fill="#3F3734"># Volcanic monochromatic scale (light to dark)</text>
  
  <rect x="560" y="100" width="20" height="20" rx="2" fill="#E5E0DD" stroke="#CCC6C2" stroke-width="1"/>
  <text x="590" y="115" font-family="monospace" font-size="14" fill="#3F3734">base00 = "#E5E0DD" # Steam</text>
  
  <rect x="560" y="130" width="20" height="20" rx="2" fill="#CCC6C2"/>
  <text x="590" y="145" font-family="monospace" font-size="14" fill="#3F3734">base01 = "#CCC6C2" # Smoke</text>
  
  <rect x="560" y="160" width="20" height="20" rx="2" fill="#A19A95"/>
  <text x="590" y="175" font-family="monospace" font-size="14" fill="#3F3734">base02 = "#A19A95" # Volcanic Ash</text>
  
  <rect x="560" y="190" width="20" height="20" rx="2" fill="#746B66"/>
  <text x="590" y="205" font-family="monospace" font-size="14" fill="#3F3734">base03 = "#746B66" # Igneous</text>
  
  <rect x="560" y="220" width="20" height="20" rx="2" fill="#514845"/>
  <text x="590" y="235" font-family="monospace" font-size="14" fill="#3F3734">base04 = "#514845" # Lava Stone</text>
  
  <rect x="560" y="250" width="20" height="20" rx="2" fill="#3F3734"/>
  <text x="590" y="265" font-family="monospace" font-size="14" fill="#3F3734">base05 = "#3F3734" # Pumice</text>
  
  <rect x="560" y="280" width="20" height="20" rx="2" fill="#2C2624"/>
  <text x="590" y="295" font-family="monospace" font-size="14" fill="#2C2624">base06 = "#2C2624" # Basalt</text>
  
  <rect x="560" y="310" width="20" height="20" rx="2" fill="#191514"/>
  <text x="590" y="325" font-family="monospace" font-size="14" fill="#191514">base07 = "#191514" # Obsidian Black</text>
  
  <text x="560" y="360" font-family="monospace" font-size="14" fill="#3F3734"># Functional colors</text>
  
  <rect x="560" y="380" width="20" height="20" rx="2" fill="#A8301F"/>
  <text x="590" y="395" font-family="monospace" font-size="14" fill="#A8301F">base08 = "#A8301F" # Error</text>

  <rect x="560" y="410" width="20" height="20" rx="2" fill="#B45A1C"/>
  <text x="590" y="425" font-family="monospace" font-size="14" fill="#B45A1C">base09 = "#B45A1C" # Warning</text>

  <rect x="560" y="440" width="20" height="20" rx="2" fill="#A47B16"/>
  <text x="590" y="455" font-family="monospace" font-size="14" fill="#A47B16">base0A = "#A47B16" # Notice</text>

  <rect x="560" y="470" width="20" height="20" rx="2" fill="#3C7232"/>
  <text x="590" y="485" font-family="monospace" font-size="14" fill="#3C7232">base0B = "#3C7232" # Success</text>

  <rect x="560" y="500" width="20" height="20" rx="2" fill="#3B6A67"/>
  <text x="590" y="515" font-family="monospace" font-size="14" fill="#3B6A67">base0C = "#3B6A67" # Selection</text>

  <rect x="560" y="530" width="20" height="20" rx="2" fill="#3C5985"/>
  <text x="590" y="545" font-family="monospace" font-size="14" fill="#3C5985">base0D = "#3C5985" # Information</text>
  
  <rect x="560" y="560" width="20" height="20" rx="2" fill="#614F85"/>
  <text x="590" y="575" font-family="monospace" font-size="14" fill="#614F85">base0E = "#614F85" # Focus</text>
</svg>
