<?xml version="1.0" encoding="UTF-8" standalone="no"?>
<svg xmlns="http://www.w3.org/2000/svg" width="1000" height="650" viewBox="0 0 1000 650">
  <!-- Mainframe theme — generated from mainframe/{night,day}.toml by scripts/generate-previews.py; edit the TOML, not this file. -->
  <rect x="0" y="0" width="500" height="650" fill="#1f1300"/>
  <rect x="500" y="0" width="500" height="650" fill="#fff4e0"/>
  <text x="250" y="40" font-family="sans-serif" font-size="20" font-weight="bold" text-anchor="middle" fill="#ffd27f">Mainframe Dark</text>
  <text x="60" y="80" font-family="monospace" font-size="14" fill="#d99000"># Mainframe monochromatic scale</text>
  <rect x="60" y="100" width="20" height="20" rx="2" fill="#1f1300" stroke="#d99000" stroke-width="1"/>
  <text x="90" y="115" font-family="monospace" font-size="14" fill="#d99000">base00 = "#1f1300" # TerminalDeepest</text>
  <rect x="60" y="130" width="20" height="20" rx="2" fill="#2e1d00"/>
  <text x="90" y="145" font-family="monospace" font-size="14" fill="#d99000">base01 = "#2e1d00" # ConsoleDark</text>
  <rect x="60" y="160" width="20" height="20" rx="2" fill="#4a3100"/>
  <text x="90" y="175" font-family="monospace" font-size="14" fill="#d99000">base02 = "#4a3100" # CRTBase</text>
  <rect x="60" y="190" width="20" height="20" rx="2" fill="#6e4a00"/>
  <text x="90" y="205" font-family="monospace" font-size="14" fill="#d99000">base03 = "#6e4a00" # AmberLow</text>
  <rect x="60" y="220" width="20" height="20" rx="2" fill="#a06b00"/>
  <text x="90" y="235" font-family="monospace" font-size="14" fill="#a06b00">base04 = "#a06b00" # AmberMid</text>
  <rect x="60" y="250" width="20" height="20" rx="2" fill="#d99000"/>
  <text x="90" y="265" font-family="monospace" font-size="14" fill="#d99000">base05 = "#d99000" # VDUMain</text>
  <rect x="60" y="280" width="20" height="20" rx="2" fill="#ffb000"/>
  <text x="90" y="295" font-family="monospace" font-size="14" fill="#ffb000">base06 = "#ffb000" # AmberBright</text>
  <rect x="60" y="310" width="20" height="20" rx="2" fill="#ffd27f"/>
  <text x="90" y="325" font-family="monospace" font-size="14" fill="#ffd27f">base07 = "#ffd27f" # TerminalHighlight</text>
  <text x="60" y="360" font-family="monospace" font-size="14" fill="#d99000"># Functional colors</text>
  <rect x="60" y="390" width="20" height="20" rx="2" fill="#7ad900"/>
  <text x="90" y="405" font-family="monospace" font-size="14" fill="#7ad900">base08 = "#7ad900" # Success</text>
  <rect x="60" y="420" width="20" height="20" rx="2" fill="#ffb000"/>
  <text x="90" y="435" font-family="monospace" font-size="14" fill="#ffb000">base09 = "#ffb000" # Warning</text>
  <rect x="60" y="450" width="20" height="20" rx="2" fill="#ffd24d"/>
  <text x="90" y="465" font-family="monospace" font-size="14" fill="#ffd24d">base0A = "#ffd24d" # Notice</text>
  <rect x="60" y="480" width="20" height="20" rx="2" fill="#ff5c33"/>
  <text x="90" y="495" font-family="monospace" font-size="14" fill="#ff5c33">base0B = "#ff5c33" # Danger</text>
  <rect x="60" y="510" width="20" height="20" rx="2" fill="#ff9e3d"/>
  <text x="90" y="525" font-family="monospace" font-size="14" fill="#ff9e3d">base0C = "#ff9e3d" # Active</text>
  <rect x="60" y="540" width="20" height="20" rx="2" fill="#ffe08a"/>
  <text x="90" y="555" font-family="monospace" font-size="14" fill="#ffe08a">base0D = "#ffe08a" # Link</text>
  <rect x="60" y="570" width="20" height="20" rx="2" fill="#ff7a1a"/>
  <text x="90" y="585" font-family="monospace" font-size="14" fill="#ff7a1a">base0E = "#ff7a1a" # Highlight</text>
  <rect x="60" y="600" width="20" height="20" rx="2" fill="#c98a2e"/>
  <text x="90" y="615" font-family="monospace" font-size="14" fill="#c98a2e">base0F = "#c98a2e" # Special</text>
  <text x="750" y="40" font-family="sans-serif" font-size="20" font-weight="bold" text-anchor="middle" fill="#3d2400">Mainframe Light</text>
  <text x="560" y="80" font-family="monospace" font-size="14" fill="#945e00"># Mainframe monochromatic scale</text>
  <rect x="560" y="100" width="20" height="20" rx="2" fill="#fff4e0" stroke="#945e00" stroke-width="1"/>
  <text x="590" y="115" font-family="monospace" font-size="14" fill="#945e00">base00 = "#fff4e0" # VDUBackground</text>
  <rect x="560" y="130" width="20" height="20" rx="2" fill="#ffe4b8"/>
  <text x="590" y="145" font-family="monospace" font-size="14" fill="#945e00">base01 = "#ffe4b8" # CRTBrightest</text>
  <rect x="560" y="160" width="20" height="20" rx="2" fill="#fccd83"/>
  <text x="590" y="175" font-family="monospace" font-size="14" fill="#945e00">base02 = "#fccd83" # TerminalLight</text>
  <rect x="560" y="190" width="20" height="20" rx="2" fill="#e0a23c"/>
  <text x="590" y="205" font-family="monospace" font-size="14" fill="#945e00">base03 = "#e0a23c" # ConsoleAmber</text>
  <rect x="560" y="220" width="20" height="20" rx="2" fill="#b97c0a"/>
  <text x="590" y="235" font-family="monospace" font-size="14" fill="#b97c0a">base04 = "#b97c0a" # VDUAmber</text>
  <rect x="560" y="250" width="20" height="20" rx="2" fill="#945e00"/>
  <text x="590" y="265" font-family="monospace" font-size="14" fill="#945e00">base05 = "#945e00" # ConsoleMid</text>
  <rect x="560" y="280" width="20" height="20" rx="2" fill="#6e4400"/>
  <text x="590" y="295" font-family="monospace" font-size="14" fill="#6e4400">base06 = "#6e4400" # TerminalText</text>
  <rect x="560" y="310" width="20" height="20" rx="2" fill="#3d2400"/>
  <text x="590" y="325" font-family="monospace" font-size="14" fill="#3d2400">base07 = "#3d2400" # CRTDeepest</text>
  <text x="560" y="360" font-family="monospace" font-size="14" fill="#945e00"># Functional colors</text>
  <rect x="560" y="390" width="20" height="20" rx="2" fill="#3e6b00"/>
  <text x="590" y="405" font-family="monospace" font-size="14" fill="#3e6b00">base08 = "#3e6b00" # Success</text>
  <rect x="560" y="420" width="20" height="20" rx="2" fill="#9a5b00"/>
  <text x="590" y="435" font-family="monospace" font-size="14" fill="#9a5b00">base09 = "#9a5b00" # Warning</text>
  <rect x="560" y="450" width="20" height="20" rx="2" fill="#7a5500"/>
  <text x="590" y="465" font-family="monospace" font-size="14" fill="#7a5500">base0A = "#7a5500" # Notice</text>
  <rect x="560" y="480" width="20" height="20" rx="2" fill="#bc2a12"/>
  <text x="590" y="495" font-family="monospace" font-size="14" fill="#bc2a12">base0B = "#bc2a12" # Danger</text>
  <rect x="560" y="510" width="20" height="20" rx="2" fill="#a85a00"/>
  <text x="590" y="525" font-family="monospace" font-size="14" fill="#a85a00">base0C = "#a85a00" # Active</text>
  <rect x="560" y="540" width="20" height="20" rx="2" fill="#7a4a00"/>
  <text x="590" y="555" font-family="monospace" font-size="14" fill="#7a4a00">base0D = "#7a4a00" # Link</text>
  <rect x="560" y="570" width="20" height="20" rx="2" fill="#a33a00"/>
  <text x="590" y="585" font-family="monospace" font-size="14" fill="#a33a00">base0E = "#a33a00" # Highlight</text>
  <rect x="560" y="600" width="20" height="20" rx="2" fill="#6e4400"/>
  <text x="590" y="615" font-family="monospace" font-size="14" fill="#6e4400">base0F = "#6e4400" # Special</text>
</svg>
