<?xml version="1.0" encoding="UTF-8" standalone="no"?>
<svg xmlns="http://www.w3.org/2000/svg" width="1000" height="650" viewBox="0 0 1000 650">
  <!-- Cyber theme — generated from cyber/{night,day}.toml by scripts/generate-previews.py; edit the TOML, not this file. -->
  <rect x="0" y="0" width="500" height="650" fill="#021515"/>
  <rect x="500" y="0" width="500" height="650" fill="#e6faf7"/>
  <text x="250" y="40" font-family="sans-serif" font-size="20" font-weight="bold" text-anchor="middle" fill="#d4f7f2">Cyber Dark</text>
  <text x="60" y="80" font-family="monospace" font-size="14" fill="#52ada3"># Cyber monochromatic scale</text>
  <rect x="60" y="100" width="20" height="20" rx="2" fill="#021515" stroke="#52ada3" stroke-width="1"/>
  <text x="90" y="115" font-family="monospace" font-size="14" fill="#52ada3">base00 = "#021515" # Background</text>
  <rect x="60" y="130" width="20" height="20" rx="2" fill="#04221f"/>
  <text x="90" y="145" font-family="monospace" font-size="14" fill="#52ada3">base01 = "#04221f" # Surface</text>
  <rect x="60" y="160" width="20" height="20" rx="2" fill="#073330"/>
  <text x="90" y="175" font-family="monospace" font-size="14" fill="#52ada3">base02 = "#073330" # Overlay</text>
  <rect x="60" y="190" width="20" height="20" rx="2" fill="#0d4a45"/>
  <text x="90" y="205" font-family="monospace" font-size="14" fill="#52ada3">base03 = "#0d4a45" # Comment</text>
  <rect x="60" y="220" width="20" height="20" rx="2" fill="#1c6b64"/>
  <text x="90" y="235" font-family="monospace" font-size="14" fill="#52ada3">base04 = "#1c6b64" # Border</text>
  <rect x="60" y="250" width="20" height="20" rx="2" fill="#52ada3"/>
  <text x="90" y="265" font-family="monospace" font-size="14" fill="#52ada3">base05 = "#52ada3" # Foreground</text>
  <rect x="60" y="280" width="20" height="20" rx="2" fill="#8ed4cb"/>
  <text x="90" y="295" font-family="monospace" font-size="14" fill="#8ed4cb">base06 = "#8ed4cb" # Heading</text>
  <rect x="60" y="310" width="20" height="20" rx="2" fill="#d4f7f2"/>
  <text x="90" y="325" font-family="monospace" font-size="14" fill="#d4f7f2">base07 = "#d4f7f2" # Bright</text>
  <text x="60" y="360" font-family="monospace" font-size="14" fill="#52ada3"># Functional colors</text>
  <rect x="60" y="390" width="20" height="20" rx="2" fill="#3ff58f"/>
  <text x="90" y="405" font-family="monospace" font-size="14" fill="#3ff58f">base08 = "#3ff58f" # Success</text>
  <rect x="60" y="420" width="20" height="20" rx="2" fill="#ffb14e"/>
  <text x="90" y="435" font-family="monospace" font-size="14" fill="#ffb14e">base09 = "#ffb14e" # Warning</text>
  <rect x="60" y="450" width="20" height="20" rx="2" fill="#ffe45e"/>
  <text x="90" y="465" font-family="monospace" font-size="14" fill="#ffe45e">base0A = "#ffe45e" # Notice</text>
  <rect x="60" y="480" width="20" height="20" rx="2" fill="#ff4d6d"/>
  <text x="90" y="495" font-family="monospace" font-size="14" fill="#ff4d6d">base0B = "#ff4d6d" # Danger</text>
  <rect x="60" y="510" width="20" height="20" rx="2" fill="#22ffff"/>
  <text x="90" y="525" font-family="monospace" font-size="14" fill="#22ffff">base0C = "#22ffff" # Active</text>
  <rect x="60" y="540" width="20" height="20" rx="2" fill="#5cc8ff"/>
  <text x="90" y="555" font-family="monospace" font-size="14" fill="#5cc8ff">base0D = "#5cc8ff" # Link</text>
  <rect x="60" y="570" width="20" height="20" rx="2" fill="#c77dff"/>
  <text x="90" y="585" font-family="monospace" font-size="14" fill="#c77dff">base0E = "#c77dff" # Highlight</text>
  <rect x="60" y="600" width="20" height="20" rx="2" fill="#2de2c8"/>
  <text x="90" y="615" font-family="monospace" font-size="14" fill="#2de2c8">base0F = "#2de2c8" # Special</text>
  <text x="750" y="40" font-family="sans-serif" font-size="20" font-weight="bold" text-anchor="middle" fill="#03100f">Cyber Light</text>
  <text x="560" y="80" font-family="monospace" font-size="14" fill="#1b5b54"># Cyber monochromatic scale</text>
  <rect x="560" y="100" width="20" height="20" rx="2" fill="#e6faf7" stroke="#1b5b54" stroke-width="1"/>
  <text x="590" y="115" font-family="monospace" font-size="14" fill="#1b5b54">base00 = "#e6faf7" # Background</text>
  <rect x="560" y="130" width="20" height="20" rx="2" fill="#c2eee8"/>
  <text x="590" y="145" font-family="monospace" font-size="14" fill="#1b5b54">base01 = "#c2eee8" # Surface</text>
  <rect x="560" y="160" width="20" height="20" rx="2" fill="#97dcd3"/>
  <text x="590" y="175" font-family="monospace" font-size="14" fill="#1b5b54">base02 = "#97dcd3" # Overlay</text>
  <rect x="560" y="190" width="20" height="20" rx="2" fill="#5fb3a9"/>
  <text x="590" y="205" font-family="monospace" font-size="14" fill="#1b5b54">base03 = "#5fb3a9" # Comment</text>
  <rect x="560" y="220" width="20" height="20" rx="2" fill="#33867d"/>
  <text x="590" y="235" font-family="monospace" font-size="14" fill="#33867d">base04 = "#33867d" # Border</text>
  <rect x="560" y="250" width="20" height="20" rx="2" fill="#1b5b54"/>
  <text x="590" y="265" font-family="monospace" font-size="14" fill="#1b5b54">base05 = "#1b5b54" # Foreground</text>
  <rect x="560" y="280" width="20" height="20" rx="2" fill="#0c3530"/>
  <text x="590" y="295" font-family="monospace" font-size="14" fill="#0c3530">base06 = "#0c3530" # Heading</text>
  <rect x="560" y="310" width="20" height="20" rx="2" fill="#03100f"/>
  <text x="590" y="325" font-family="monospace" font-size="14" fill="#03100f">base07 = "#03100f" # Bright</text>
  <text x="560" y="360" font-family="monospace" font-size="14" fill="#1b5b54"># Functional colors</text>
  <rect x="560" y="390" width="20" height="20" rx="2" fill="#077a45"/>
  <text x="590" y="405" font-family="monospace" font-size="14" fill="#077a45">base08 = "#077a45" # Success</text>
  <rect x="560" y="420" width="20" height="20" rx="2" fill="#8f5400"/>
  <text x="590" y="435" font-family="monospace" font-size="14" fill="#8f5400">base09 = "#8f5400" # Warning</text>
  <rect x="560" y="450" width="20" height="20" rx="2" fill="#6f6200"/>
  <text x="590" y="465" font-family="monospace" font-size="14" fill="#6f6200">base0A = "#6f6200" # Notice</text>
  <rect x="560" y="480" width="20" height="20" rx="2" fill="#b80e34"/>
  <text x="590" y="495" font-family="monospace" font-size="14" fill="#b80e34">base0B = "#b80e34" # Danger</text>
  <rect x="560" y="510" width="20" height="20" rx="2" fill="#06756f"/>
  <text x="590" y="525" font-family="monospace" font-size="14" fill="#06756f">base0C = "#06756f" # Active</text>
  <rect x="560" y="540" width="20" height="20" rx="2" fill="#0f5cb5"/>
  <text x="590" y="555" font-family="monospace" font-size="14" fill="#0f5cb5">base0D = "#0f5cb5" # Link</text>
  <rect x="560" y="570" width="20" height="20" rx="2" fill="#742db0"/>
  <text x="590" y="585" font-family="monospace" font-size="14" fill="#742db0">base0E = "#742db0" # Highlight</text>
  <rect x="560" y="600" width="20" height="20" rx="2" fill="#09655c"/>
  <text x="590" y="615" font-family="monospace" font-size="14" fill="#09655c">base0F = "#09655c" # Special</text>
</svg>
